<?xml version="1.0" encoding="UTF-8" standalone="no"?>
<svg
   xmlns:dc="http://purl.org/dc/elements/1.1/"
   xmlns:cc="http://creativecommons.org/ns#"
   xmlns:rdf="http://www.w3.org/1999/02/22-rdf-syntax-ns#"
   xmlns:svg="http://www.w3.org/2000/svg"
   xmlns="http://www.w3.org/2000/svg"
   xmlns:sodipodi="http://sodipodi.sourceforge.net/DTD/sodipodi-0.dtd"
   xmlns:inkscape="http://www.inkscape.org/namespaces/inkscape"
   width="62.308239mm"
   height="50.217175mm"
   viewBox="0 0 736.10937 593.26592"
   version="1.1"
   id="svg123812"
   sodipodi:docname="GHSUB.svg"
   inkscape:version="1.0beta2 (2b71d25, 2019-12-03)">
  <metadata
     id="metadata123818">
    <rdf:RDF>
      <cc:Work
         rdf:about="">
        <dc:format>image/svg+xml</dc:format>
        <dc:type
           rdf:resource="http://purl.org/dc/dcmitype/StillImage" />
        <dc:title></dc:title>
      </cc:Work>
    </rdf:RDF>
  </metadata>
  <defs
     id="defs123816" />
  <sodipodi:namedview
     fit-margin-bottom="0"
     fit-margin-right="0"
     fit-margin-left="0"
     fit-margin-top="0"
     pagecolor="#ffffff"
     bordercolor="#666666"
     inkscape:document-rotation="0"
     borderopacity="1"
     objecttolerance="10"
     gridtolerance="10"
     guidetolerance="10"
     inkscape:pageopacity="0"
     inkscape:pageshadow="2"
     inkscape:window-width="1677"
     inkscape:window-height="1258"
     id="namedview123814"
     showgrid="false"
     inkscape:zoom="3.4737399"
     inkscape:cx="86.042755"
     inkscape:cy="107.27719"
     inkscape:window-x="1596"
     inkscape:window-y="50"
     inkscape:window-maximized="0"
     inkscape:current-layer="g193" />
  <g
     transform="translate(-414.5,-12.701988)"
     id="g193">
    <path
       inkscape:connector-curvature="0"
       style="fill:none;stroke:#000000;stroke-opacity:1"
       id="path124519"
       d="m 456,136 c -13.82,9.34 -15.79,13.77 -20.64,29 -2.19,6.87 -1.76,14.62 6.64,16 0,0 -1.57,3.18 -1.57,3.18 0,0 0,19.55 0,19.55 0,0 3.57,3.27 3.57,3.27 -5.39,2.54 -4.54,4.6 -5.89,10 -1.94,7.76 -4.17,12.84 0.89,20 -4.16,2.5 -3.88,4.46 -4,9 -3.21,-1.67 -7.62,-1.55 -10.16,1.43 -1.58,1.86 -2.55,6.16 -3.35,8.57 -1.82,5.46 -5.74,16.25 -4.18,21.89 1.09,3.91 4.51,4.27 7.36,1.78 2.86,-2.5 4.72,-7.02 5.51,-10.67 0.86,-3.94 0.81,-6.06 0.82,-10 0,0 3,4 3,4 3.67,-1.19 4.67,-2.35 8,0 -2.09,-0.2 -3.65,-0.54 -5.43,1.02 -2.93,2.56 -4.56,15.94 -4.57,19.98 -0.01,4.71 -1.28,10.14 3,13 0,0 -1,4 -1,4 0,0 -4,0 -4,0 0,0 -3.72,19 -3.72,19 0,0 -5.28,19 -5.28,19 0,0 6,0 6,0 0,0 -5,1 -5,1 -0.9,19.94 -7,26.39 -7,49 0,0 4,0 4,0 0,0 -3,1 -3,1 0,7.42 -3.06,18.04 5,15.81 1.42,-0.39 2.7,-1.15 4,-1.81 0,0 -4.98,4.54 -4.98,4.54 -1.08,1.57 -1.27,5.42 -1.63,7.46 -1.32,7.38 -3.57,12.47 -2.39,20 6.02,-0.99 7.85,-4.76 12,-9 0,0 -3,5 -3,5 0,0 2,0 2,0 -4.16,5.46 -7.72,12.11 -4.35,18.94 3.6,7.31 11.54,1.64 13.14,-3.03 0.37,-2.01 0.21,-7.55 0,-9.91 2.24,7.14 0.12,20.64 1.95,24.89 1.86,4.32 6.52,4.62 9.25,0.88 1.92,-2.62 1.93,-5.68 1.9,-8.77 2.36,5.85 2.18,6.23 0,12 -0.77,1.68 -1.16,3.09 -2.45,4.46 -2.11,2.24 -3.85,1.57 -7.19,6.56 -3.33,4.95 -2.92,6.42 -4.85,10.89 0,0 -3.4,6.09 -3.4,6.09 -0.5,-12.09 1.23,-11.4 -7,-21 0,0 -6,0 -6,0 -0.47,8.01 -1.61,28.12 12,21 -0.8,2.99 -3.02,10.26 -2.17,12.98 1.6,5.15 7.76,7.2 11.32,2.63 2.47,-3.19 1.35,-7.17 2.08,-10.61 1.04,-4.82 5.14,-9.47 6.77,-21 2.31,4.85 2.35,7.03 8,8 -6.59,5.8 -5.37,11.25 -3,19 -5.43,1.59 -11.41,7.01 -12.23,12.83 -0.58,1.94 -0.07,4.23 0,6.17 -8.78,2.01 -9.71,19.32 -5.84,25.99 2.01,3.45 5.22,4.93 6.47,8.1 0.8,2.03 0.6,6.59 0.6,8.91 -9.84,1.67 -7.35,9.96 -7.04,17 0.24,5.51 -0.29,10.21 3.68,14.77 2.34,2.71 7.76,4.75 10.06,0.92 0.79,-1.32 0.96,-4.13 1.09,-5.69 0,0 0.79,-10 0.79,-10 0.72,-5.51 0.79,-7.89 -1.58,-13 7.84,-3.93 8.98,-13.06 9,-21 0,0 -6,0 -6,0 2.29,-0.7 6.69,-1.38 8.3,-2.82 2.96,-2.65 4.92,-14.04 5.7,-18.18 1.78,6.27 0.35,12.93 1.6,15.87 1.7,3.71 9.4,8.37 14.4,0 0,0 8.26,6.69 8.26,6.69 0,0 2.74,11.44 2.74,11.44 9.08,-5.08 10,-13.75 10,-23 4.28,2.82 4.97,2.87 10,3 0,0 0,-4 0,-4 2.94,2.07 6.07,3.96 9.81,2.4 4.65,-1.94 9.08,-16.66 7.76,-21.35 -1.53,-5.42 -5.26,-2.95 -8.57,-8.05 4.66,2.26 6.84,3.22 12,2 4.63,5.07 15.95,-3.93 17,-13 7.07,3.71 16.32,0.61 17,-7.98 4.4,6.09 7.31,5.07 12.27,0 1.38,-1.4 3.41,-3.35 3.93,-5.19 1.18,-2.53 0.41,-5.32 0,-7.83 5,3.66 6.05,3.15 11.8,1 -5.1,7.18 -11.56,15.45 -14,24 -1.3,-2.22 -2.54,-4.73 -5.05,-5.81 -8.04,-3.44 -20.01,11.24 -21.95,17.81 -14.35,-9.45 -16.72,12.42 -14.26,17.85 2.3,5.1 8.04,2.34 10.61,-0.96 1.51,-1.93 1.98,-3.61 2.65,-5.89 7.85,4.11 11.49,0.42 17.08,-4.95 2.12,-2.03 4.25,-3.71 5.96,-6.14 1.65,-2.36 3,-6.39 5.35,-7.89 3.7,-2.36 13.19,1.13 18.2,-7.11 4,-6.58 8.26,-20.84 -1.59,-23.91 0,0 7,-6 7,-6 2.79,3.95 4.37,3.77 9,4 -1.5,8.69 5.33,6.38 10,3.06 8.56,-6.09 9.99,-10.07 10,-20.06 0.01,-3.58 1.2,-9.8 -3,-11 6.22,-10.2 10.89,-20.82 11,-33 0,0 -4,0 -4,0 0,0 5,-2 5,-2 3.33,3.53 7.06,-0.24 9.56,-3.04 5.79,-6.47 9.24,-13.24 9.44,-21.96 6.78,6.82 10.08,0.2 13.69,-6 3.08,-5.28 6.7,-11.63 4.75,-18 0,0 -4.44,-9 -4.44,-9 1.54,2.03 4,6.3 6.95,5.97 3.27,-0.36 6.83,-7.27 8.27,-9.97 5.33,-10.05 12.11,-21.14 4.78,-32 7.89,2.63 11.79,-3.29 16,-9 6.19,10.19 12.25,1.12 14.82,-6 0,0 12.9,-36 12.9,-36 0,0 0.99,-6 0.99,-6 0.33,-2.79 0.54,-10.2 -4.43,-8.38 -3.33,1.23 -9.6,12.93 -11.56,16.38 -3.22,5.66 -6.01,9.35 -6.72,16 -1.92,-0.68 -3.9,-1.53 -6,-1.27 -7.02,0.86 -11.2,13.59 -13.89,19.27 -2.47,5.23 -5.18,6.97 -4.11,13 0,0 -15.94,13.85 -15.94,13.85 -2.12,2.04 -4.57,3.61 -2.06,6.15 -7.9,2.55 -10.3,1.18 -15,10 0,0 3,-1 3,-1 -2.49,1.47 -2.39,1.24 -5,0 0,0 -6,7 -6,7 0,0 3,2.06 3,2.06 -1.6,-0.26 -2.15,-0.68 -3.87,0 -1.93,0.91 -7.41,6.96 -8.11,8.99 -0.84,2.4 0.08,4.08 -1.66,6.49 -2.2,3.05 -6.06,4.52 -8.95,6.73 -2.12,1.63 -2.96,3.68 -4.68,5.7 -5.33,6.27 -9.48,6.94 -5.73,16.03 -8,2.55 -11.52,7.73 -12,15.97 -1.75,-0.31 -2.91,-0.77 -4.73,0 -4.96,1.96 -6.25,14.62 -8.36,19.03 -2.18,4.56 -8.14,7.31 -10.38,9.76 -2,2.19 -2.07,4.6 -3.61,7.07 -2.96,4.75 -4.65,3.49 -6.92,11.17 0,0 -1,-3 -1,-3 -4.32,0 -6.35,-0.61 -10,2 -4.31,-9.97 -10.25,-6.03 -19,-6 -1.02,-8.69 -5.71,-7 -13,-7 0,0 -7,15 -7,15 0,0 9,1 9,1 -4.23,1.2 -7.3,2.03 -10,-2 -9.31,0.39 -9.47,-2.88 -17,-5 0,0 5.75,-14 5.75,-14 -0.06,-2.34 -3.17,-6.8 -4.44,-8.98 -1.56,-2.68 -3.41,-6.04 -7.11,-5.54 -4.08,0.55 -4.34,7.32 -8.3,7.32 -3.98,0 -5.04,-5.6 -10.9,-6.8 -1.35,-3.44 -5.76,-10.93 -9.21,-12.4 -1.59,-0.68 -4.06,-0.58 -5.79,-0.6 1.67,-0.58 4.94,-1.37 6.01,-2.73 1.81,-2.32 0.32,-5.92 -0.6,-8.27 -1.99,-5.06 -2.57,-7.5 -2.36,-13 0.08,-2.43 0.82,-5.67 0,-7.91 -1.25,-3.45 -4.95,-4.75 -7.67,-9.09 -1.76,-2.8 -1.46,-4.35 -2.66,-7.09 -4.03,-9.17 -4.38,-4.11 -6.72,-16.91 0,0 -11,-1 -11,-1 0,0 11,0 11,0 0,0 1.91,-15 1.91,-15 0,0 0,-8.17 0,-8.17 0,0 1.09,-17.83 1.09,-17.83 0,0 -9,0 -9,0 0,0 8,-1 8,-1 0,-4.98 1.14,-7.93 -4,-10 0,0 1,-4 1,-4 0,0 2,4 2,4 0,0 8,-2 8,-2 -1.01,-5.42 -2.04,-9.96 -8,-11 0,0 5,-1 5,-1 0,0 -4.47,-15 -4.47,-15 0,0 -5.99,-11 -5.99,-11 0,0 -0.87,-12 -0.87,-12 0,0 -1.67,-13 -1.67,-13 -1.95,-3.55 -3.16,-12.87 -2.91,-17 0.23,-3.76 3.31,-10.06 0.91,-13 2.83,-5.6 0.83,-4.94 1.46,-10 0.76,-6.03 5.92,-16.63 -2.46,-20 0,0 1,-6 1,-6 0,0 2,2 2,2 0,0 1,0 1,0 0,0 4.16,-20 4.16,-20 1.42,-5.19 3.95,-8.62 1.84,-14 z" />
    <path
       inkscape:connector-curvature="0"
       style="fill:none;stroke:#000000;stroke-opacity:1"
       id="path124515"
       d="m 697,54 c -1.22,-1.27 -2.22,-2.61 -4.03,-3.12 -2.6,-0.72 -4.18,0.96 -1.97,3.12 -7.98,0.37 -13,-8.46 -16,4 0,0 0,-5 0,-5 0,0 -8,-2 -8,-2 -2.14,7.49 -3.59,12.71 -12,13 0,0 2,-8 2,-8 0,0 -10,9 -10,9 0,0 2,-8.17 2,-8.17 0,0 -8.83,0 -8.83,0 0,0 -7.18,1.72 -7.18,1.72 0,0 -8.99,-3.55 -8.99,-3.55 0,0 -1,3 -1,3 0,0 -5,-1 -5,-1 0,0 -1,4 -1,4 0,0 -6,-1 -6,-1 0,0 2,-7 2,-7 -1.77,0.02 -4.84,-0.18 -6.26,0.99 -4.37,3.59 1.29,5.76 4.26,6.01 0,0 -1,4 -1,4 -2.63,-2.43 -2.87,-2.96 -6,-1 0,0 -1.71,-3.55 -1.71,-3.55 0,0 -14.29,-7.45 -14.29,-7.45 0,0 -2,7 -2,7 0,0 -5,-4 -5,-4 0,0 -1,4 -1,4 -2.68,-1.74 -4.37,-3.6 -6,0 -2.7,-3.78 -3.53,-3.93 -8,-5 0,0 -1,6 -1,6 -3.32,-3.55 -4.23,-4.09 -9,-5 0,0 -1,5 -1,5 0,0 -6,-2.5 -6,-2.5 0,0 -25,1.5 -25,1.5 0,0 1,-4 1,-4 0,0 -15,-4 -15,-4 -6.59,3.41 -12.01,-6 -18.94,-4.48 -4.57,1.03 -6.18,11.64 0,15.48 -5.99,3.54 -16.15,16.32 -5.06,20 -9.21,3.48 -6.14,8.66 -8.19,16.42 0,0 -2.19,5.58 -2.19,5.58 0,0 -2.68,9.91 -2.68,9.91 -2.15,6.27 -4.55,12.54 -5.81,19.09 -1.28,6.67 -5.41,13.9 3.87,16 -6.18,2.76 -8.25,4.26 -10,11 0,0 6,1 6,1 0,0 -6.31,1 -6.31,1 -1.49,10.05 0.23,7.37 0,14 -0.48,4.33 -1.94,16.89 0,20.57 0.95,2.16 10.63,5.94 13.02,5.81 1.86,-0.1 2.22,-1.31 2.29,-1.38 2.84,8.77 4.86,7.33 14,10 0,0 1,-7 1,-7 0,0 6,0 6,0 -2.25,8.03 0.31,9.62 8,10 0.01,2.03 -0.26,5.65 0.99,7.3 0.71,0.94 1.93,1.55 3.04,1.84 4.27,1.11 4.89,-1.92 5.97,-5.14 0,0 6,2 6,2 0.7,4 1,4.3 5,5 0,0 1,-9 1,-9 0,0 5,3 5,3 0,0 0,7 0,7 1.29,-0.23 2.29,-0.16 3.44,-1.02 2.92,-2.18 5.01,-12.48 4.56,-15.98 0,0 11,3 11,3 0,0 -5,13 -5,13 6.57,1.1 8.21,1.01 10,-9 2.94,0.92 6.34,2.91 8.91,3.21 2.72,0.31 1.7,-0.56 6.18,0.61 7.21,1.89 10.73,5.22 15.91,-0.82 3.52,3.42 11.15,5.63 16,7 0,0 1,-6 1,-6 5.39,2.71 10.99,3.85 17,4 0,0 0,-4 0,-4 3,4.72 4.77,6 10,8 0,0 -1,7 -1,7 0,0 4,0 4,0 -2.11,6.54 -2.43,13.65 7,12 0,0 -1,5 -1,5 4.13,0.97 5.31,1.57 8,-2 0,0 9,5 9,5 0,0 2,-3 2,-3 3.45,5.83 9.67,8.28 16,10 0,0 3,-5 3,-5 7.75,7.48 9.15,4.15 14,5.81 4.35,1.49 12.14,6.68 16.94,6.49 2.6,-0.11 8.77,-7.71 9.19,-10.13 0.29,-1.67 -0.46,-2.07 -1.13,-3.17 3.84,-2.57 3.14,-4.92 2,-9 5.62,0.55 8.01,-0.1 9,-6 0,0 3,0 3,0 1.01,-6.96 7.23,-10.85 4.74,-15.59 -0.68,-1.28 -3.51,-3.27 -4.74,-4.41 6.22,-1.08 8.63,-7.46 10.08,-13 0.93,-3.12 2.43,-5.52 0,-8 0,0 0.92,-5 0.92,-5 0,0 -7,0 -7,0 0,0 9,0 9,0 0,0 1,-5 1,-5 0,0 -8,0 -8,0 0,0 8,-1 8,-1 -0.45,-3.31 -0.37,-5.74 -3,-8 8.11,-8.03 7.9,-21.78 9.84,-26 2.66,-5.77 7.78,-8.48 8.98,-10.41 1.24,-2 2.42,-11.16 2.18,-13.59 2.16,-1.46 2.89,-2.31 3.45,-5.01 1.42,-6.81 -5.39,-7.71 -10.45,-7.99 2.69,-2.61 4.05,-3.48 2,-7 3.43,-3.45 9.37,-12.97 8.58,-18 -0.78,-4.98 -8.13,-9.71 -12.58,-11 3.55,-6.9 11.37,-12.92 -1,-16 3.58,-9.29 -7.51,-11.23 -14,-12.92 -1.94,-0.51 -5.59,-2.12 -7.4,-0.96 -1.57,1.01 -1.47,3.27 -1.6,4.88 -3.11,-4.65 -5.71,-5.5 -11,-7 0,0 -2,6 -2,6 -4.83,-4.34 -7.42,-4.65 -11,1 0,0 -4,-4 -4,-4 0,0 1,-8 1,-8 -5.78,1.31 -5.73,3.52 -6,9 z" />
    <g
       id="RSS1">
      <path
         inkscape:connector-curvature="0"
         d="m 460,227 c -3.71,3.03 -3.25,4.56 -2,9 -4.06,3.71 -0.33,8.58 4,10 0,0 -4,1 -4,1 -2.63,14.68 0.96,14.26 1.75,21 0.38,3.51 -0.99,4.38 0,9 0,0 2.51,7.28 2.51,7.28 0.97,3 2.64,11.54 2.74,14.72 -12.3,-2.8 -4.35,12.19 -4.99,20.58 -0.38,5.15 -3.33,9.71 0,14.42 -3.69,6.94 -3.01,15.35 -3.01,23 0,0 7,0 7,0 0,0 -6,1 -6,1 1.08,5.32 3.07,9.4 8,12 -2.26,6.92 4.3,12.92 10,16 0,0 -2.67,5 -2.67,5 0,0 1.98,13.71 1.98,13.71 0,0 2.69,2.29 2.69,2.29 -1.73,7.29 0.57,18.39 9,20 2.44,5.17 9.92,14.52 13.86,4.98 0.66,-1.61 0.87,-3.28 1.14,-4.98 11.86,4.91 8.1,11.64 16.42,16.91 2.52,1.59 5.7,1.85 8.58,2.09 -6.5,1.53 -8.41,-1.45 -11.72,0.83 -2.87,2.15 -4.76,8.75 0,12.52 2.94,2.51 7.89,3.13 11.72,3.65 5.47,-8.94 6.46,-8.48 7,-19 0,0 1,4 1,4 3.89,0.51 8.13,2.19 11,-1 4.64,9.75 7.7,9.4 18,6 2.78,8.04 10.91,9.35 16.87,3.77 3.81,-3.56 4.86,-7.78 5.13,-12.77 12.78,-1.78 12.08,-9.64 14.18,-15 2.2,-5.6 3.83,-7.67 4.82,-14 6.91,-0.55 9.28,-5.62 10,-12 0,0 8,-3 8,-3 0,0 -2,-9 -2,-9 8.9,-4.04 9.54,-8.77 13.39,-12.39 0,0 10.61,-7.61 10.61,-7.61 -0.71,-3.68 -0.77,-4.9 -4,-7 3.35,-2.02 4.2,-2.07 5,-6 9.06,-1.95 3.13,-4.08 14,-10 0,0 -1,-3 -1,-3 4.52,0.08 6.08,-0.33 7,-5 6.7,-2.02 5.12,-4.18 8.69,-8.79 1.74,-2.25 3.77,-3.14 5.14,-5.42 1.29,-2.15 0.91,-3.85 2.76,-6.37 4.06,-5.51 7.62,-5.27 5.41,-13.42 0,0 4.57,-1.74 4.57,-1.74 0,0 6.53,-11.26 6.53,-11.26 0,0 0,-3 0,-3 6.35,-2.18 5.36,-6.27 7.52,-11.41 1.02,-2.41 3.15,-5.3 1.37,-7.94 -1.46,-2.18 -5.65,-2.99 -7.99,-3.89 -5.74,-2.21 -5.09,-3.96 -12,-4.76 0,0 0,5 0,5 -2.49,-5.28 -8.83,-11.31 -13,-4 0,0 -9,-4.36 -9,-4.36 0,0 -6,-3.58 -6,-3.58 0,0 -5,-1.42 -5,-1.42 -4.47,-1.41 -6.12,-3.6 -9,1.36 -4.06,-1.87 -4.64,-2.13 -9,-1 0,0 2,-5 2,-5 0,0 -5,0 -5,0 0,0 -3,-5 -3,-5 1.85,-4.46 3.17,-6.91 -2,-9 2.16,-9.24 -3.39,-10.02 -11,-10.64 -2.82,-0.23 -3.78,-1.35 -6,0.64 -3.22,-2.8 -3.8,-2.75 -8,-3 0,0 -1,5 -1,5 -4.92,-2.68 -6.46,-3.52 -12,-2 -2.21,-5.32 -5.83,-1.58 -10.09,-2.16 0,0 -13.91,-3.84 -13.91,-3.84 0,0 -1,3 -1,3 0,0 -9,-6 -9,-6 -5,9.8 -1.76,10.34 -12,10 0,0 0,7 0,7 0,0 -1,-7 -1,-7 0,0 -5,0 -5,0 7.49,-2.23 7.36,-0.56 12,-13 0,0 -9,-4 -9,-4 -3.49,8.78 -4.32,11.68 -5,21 0,0 -5.01,-5.41 -5.01,-5.41 0,0 -2.57,-4.59 -2.57,-4.59 0,0 -2.42,-1 -2.42,-1 0,0 -1,7 -1,7 -4,-0.88 -4.69,-1.04 -6,-5 0,0 -5,-2 -5,-2 0,0 -2,6 -2,6 0,0 -8,-2 -8,-2 0,0 0,8 0,8 -1.7,-6 -0.43,-12.28 -1.57,-14.79 -1.06,-1.9 -5.62,-4.07 -7.43,0 0,0 0,-11.21 0,-11.21 0,0 -5,0 -5,0 0,0 -1,7 -1,7 -6.22,-3.84 -8.85,-3.22 -11.74,-4.94 0,0 -3.69,-3.2 -3.69,-3.2 -1.89,-1.46 -9.13,-4.6 -11.43,-4.34 -2.84,0.34 -3.22,3.2 -4.01,5.48 -2.18,9.75 0.23,7.85 0,14 -0.48,3.5 -2.05,5.33 0.87,8 z"
         id="path124475"
         style="fill:none;stroke:#000000;stroke-opacity:1" />
    </g>
    <g
       id="X35S">
      <path
         id="path124421"
         style="fill:none;stroke:#000000;stroke-opacity:1"
         d="m 872,51 c 1.1154,13.212218 1.63303,16.967204 -6.77158,27.999512 6.32514,8.968716 -7.17794,24.259438 -7.14186,37.631578 -4.51645,9.83497 -7.29611,20.88778 -8.68719,31.6125 10.72869,4.50714 -10.32555,16.03067 0.29837,16.97345 -12.85815,9.28194 -0.37539,37.16982 -6.90399,51.84405 0.80709,11.87264 -3.08529,28.52802 0.64465,33.57931 -7.44593,7.17467 7.3293,39.53463 -5.96778,16.84366 -4.41176,-17.87752 -7.93761,-42.75543 -6.04781,-63.09043 C 832.65084,195.54312 836.12263,187.02019 834,178 c -10.2873,0.0604 3.07194,-6.42829 1.66286,-12.74481 C 837.36862,157.15407 839.1954,149.07947 841,141 c -20.37601,3.64296 -27.91915,43.65731 -14.85375,43.595 -8.44822,10.39095 3.72762,26.42323 0.79875,26.5075 -14.53837,13.44868 4.67479,42.28439 -17.245,39.6375 -9.18685,8.53383 -12.13652,50.55731 3.62672,25.43031 3.31232,-13.21334 -0.33938,-11.81037 9.61792,-11.02455 C 824.56592,263.72499 807.5671,291.76712 819,301 c -7.77777,8.34544 -9.87387,27.05791 -12.78828,40.59656 6.11959,6.03469 -13.97364,40.26993 -4.57128,51.40344 -1.83871,-0.75907 -6.1546,25.15542 7.35956,15 -10.93637,7.57309 -13.54756,46.52377 3,23 -10.54452,8.60223 -5.57047,40.14263 7.54859,20.64391 2.28232,-31.19956 -2.50937,39.51487 13.13641,11.91734 4.82632,-11.73125 3.11495,20.04232 -5.59,14.4475 -8.63026,7.74442 -25.78364,45.92188 -3.48957,35.89213 1.91138,-13.52294 9.89497,-40.43911 14.40232,-20.71496 -1.77745,12.66366 -2.34599,17.84057 -11.80629,26.53986 -9.17871,15.62268 -11.7748,32.38627 0.12387,48.4834 -9.25384,4.96993 -13.92983,40.79283 5.98686,36.98082 6.07273,-11.74705 -3.4359,-27.42312 6.97551,-35.46803 9.46771,-9.3998 -5.99856,-17.08002 1.1173,-15.85447 11.56672,-5.30012 6.06045,-29.52201 23.595,-22.8675 -24.30396,-4.35092 -9.12747,39.18032 2,17 13.61398,17.86302 11.36309,-8.73296 12.02568,-18.26263 8.66332,-10.84545 -9.49049,-9.92925 4.39432,-11.75737 5.27268,-13.44585 0.36135,-18.44692 12.14594,-26.15172 0.19024,-14.09051 -2.5325,-29.5893 4.8739,-42.37875 C 898.70589,444.81063 921.11758,429.0801 906,428 c 17.86741,-6.18187 4.88754,-29.95984 16,-35 -3.99909,-13.72017 -7.12187,-8.63513 -2.34682,-22.09247 4.49279,-6.42639 7.0441,-12.53642 11.50682,-17.22775 4.94339,-16.18456 -9.22445,-23.90832 1.81323,-37.79123 4.74656,-19.84529 5.692,-41.94812 19.13443,-56.86261 9.26301,-18.24401 16.76719,-35.5456 25.41187,-52.18235 2.64624,-10.02663 6.25268,-24.49348 7.57413,-37.1097 8.0666,-9.20637 4.00817,-30.88549 11.44811,-27.93783 C 1004.6162,126.70203 1008.2749,110.00794 1014,94 c -12.2027,3.281338 12.4446,-10.517044 1.9806,-18.451586 9.0723,-10.231538 -0.2041,-18.546818 -8.621,-13.986812 -3.032,-1.897308 -12.63979,8.535655 -11.27152,-1.369869 C 996.96582,49.425086 980.81955,65.354268 995,64 c -2.77935,9.287986 -10.84398,-4.022862 -18.20414,-5.473184 -6.24605,-3.840668 -7.95797,3.856323 -12.43626,3.034786 -7.34092,1.00918 -6.4581,-0.472675 -14.57664,-2.259346 C 949.40308,68.973913 923.38953,46.850769 925,63 c -44.67452,-12.944165 12.21906,-7.711339 -31,-8 -7.79606,3.401325 -13.7803,-8.06179 -22,-4 z"
         inkscape:connector-curvature="0"
         sodipodi:nodetypes="cccccccccccccccccccccccccccccccccccccccccccccccccccccccccc" />
    </g>
    <path
       inkscape:connector-curvature="0"
       style="fill:none;stroke:#000000;stroke-opacity:1"
       id="path124383"
       d="m 1080,58 c 0,0 0,1 0,1 0,0 -1,-1 -1,-1 0,0 1,0 1,0 z" />
    <g
       id="polyA">
      <path
         id="Selection #12"
         style="fill:none;stroke:#000000;stroke-opacity:1"
         d="m 1081,58 c -9.5453,-8.130382 -4.5237,5.106135 -17.7232,-2.643652 -2.594,12.677881 -7.9266,-6.727077 -14.2863,6.211775 -4.2427,5.856152 -4.3508,16.482649 -9.2928,20.214834 -9.7095,-0.314445 1.0446,-13.5635 0.7427,-19.824293 -0.6463,-3.105831 -11.5873,24.287047 -9.8874,6.993985 9.0254,-16.0151 -20.9741,-3.898675 -12.1805,9.851101 4.039,14.836514 -14.6789,28.46564 -11.3725,45.19625 -11.35537,11.83486 -12.35429,29.07595 -20.67858,43.11414 -2.7328,16.7766 -0.0304,17.33959 -6.56136,33.94125 -5.37227,7.8419 -3.2555,23.53807 -10.96908,24.81278 -4.70286,12.95513 -10.95769,27.4517 -18.44306,36.73148 -6.24179,10.81248 -11.50935,21.47749 -13.21183,34.14285 8.74704,15.08467 6.16812,5.12586 -0.35537,8.88882 0.96379,13.97832 -14.69901,21.49432 -4.09155,34.68025 -5.11014,9.01101 3.97338,17.80872 0.29896,15.56015 -7.62987,6.86698 -11.55982,12.62486 -14.49813,23.08828 9.90928,9.47905 -4.15813,25.56825 3.20774,29.25704 -7.05366,2.63208 -16.22126,28.0911 -0.0832,25.4128 3.4233,1.64059 -15.4553,-3.89782 -16.47314,8.15807 -12.67392,9.52872 17.93742,8.05435 -3.44373,8.38084 -10.83045,7.59235 -10.10828,49.63284 3.30234,34.15147 -6.80569,16.0867 25.9135,2.71605 9.81957,10.97158 -10.34104,-4.05334 -15.05426,15.56047 -10.99566,-0.98383 -10.79911,-16.30838 -19.61523,20.5856 -21.59469,28.38172 -4.9382,13.42624 -2.34876,27.27559 -5.98922,41.31031 -12.99769,-23.89726 -20.79434,33.81027 -1.07953,11.51578 -2.62601,-15.34798 7.53205,-4.10137 11.4159,-20.74146 C 882.20998,538.30106 896.976,554.62704 898,543 c 19.19723,15.81888 17.0896,-29.92053 11.14344,-24.64266 12.92755,7.74666 23.30864,-5.98473 28.589,-11.28277 13.67784,3.28994 10.90481,-12.87753 21.22756,-5.10457 13.54572,-3.52476 4.20232,-21.31206 17.47047,-14.70453 5.4067,-4.78765 -11.7931,29.23565 -12.58922,19.43203 -16.55621,-10.53997 -21.23076,21.09186 -36.19109,15.38248 -12.44231,18.03661 6.02187,25.15762 13.20054,12.02531 18.7175,0.74393 21.4729,-26.59977 41.41418,-24.56601 14.33288,-8.34177 -1.2793,-27.45822 5.41437,-28.67136 6.98194,-10.33543 14.90015,18.00768 25.62165,-0.34511 12.4494,-15.34523 -1.8278,-32.21124 11.8472,-47.35592 4.9398,-11.82329 -7.6709,-16.2771 7.9432,-14.31314 13.9625,-4.9547 8.7752,-29.35193 20.0605,-23.32367 11.0382,-7.67353 17.2459,-24.1978 7.8482,-35.53008 16.7022,18.04324 25.2067,-31.47765 22.9618,-35.60805 12.2383,-0.53305 10.5643,-17.30871 18.8696,-4.70429 14.2293,-13.88233 20.3636,-37.83623 22.7086,-57.68266 -7.0582,-9.29314 -13.4666,11.63259 -18.1202,17.06156 -2.7172,15.01932 -22.2021,10.43256 -24.1498,29.93344 -2.4191,11.7136 -9.7985,18.84209 -19.3589,25.82557 -2.456,5.38788 -12.3686,13.32252 -6.443,2.55776 6.3182,-8.63199 14.8224,-18.46923 15.7671,-27.84953 9.0352,-4.31558 9.0177,-16.89984 15.9764,-22.63817 9.2917,-21.29868 13.9232,-32.76031 28.5559,-48.41938 8.3697,-9.28322 -9.3644,-13.31732 4.0613,-18.30375 11.5843,-8.66256 -2.1681,-25.565 2.1319,-21.1725 15.2958,-2.32439 -10.7091,-6.81984 2.2794,-5.65501 0.6633,-7.13414 6.8414,-21.78944 9.1599,-33.92499 6.1149,-8.37039 26.9618,-34.84661 4.6,-37.42 5.1251,-10.35729 19.7491,-30.582413 -2,-36 14.2522,-13.616195 -9.2349,-35.120829 -23.74,-27.665 -1.8887,-0.997484 -14.3212,-5.476031 -12.8504,2.48416 C 1096.705,52.631978 1081.3423,66.050182 1088,50 c -5.5205,-2.111949 -7.4951,3.895111 -7,8 z"
         inkscape:connector-curvature="0" />
    </g>
    <g
       style="fill:#000000;fill-opacity:1"
       id="textg93_LGD">
      <path
         inkscape:connector-curvature="0"
         id="path124896"
         style="font-style:normal;font-variant:normal;font-weight:normal;font-stretch:normal;font-size:33.3418px;line-height:1.25;font-family:Arial;-inkscape-font-specification:'Arial Normal';font-variant-ligatures:normal;font-variant-caps:normal;font-variant-numeric:normal;fill:#000000;fill-opacity:1;stroke-width:3.12579"
         d="M 560.42347,43.601763 V 19.686184 h 2.66995 v 2.246664 q 0.94425,-1.318694 2.1327,-1.969901 1.18846,-0.667487 2.88159,-0.667487 2.21411,0 3.90725,1.139612 1.69313,1.139612 2.55598,3.223475 0.86285,2.067582 0.86285,4.542169 0,2.653669 -0.96053,4.786372 -0.94425,2.116423 -2.76763,3.256035 -1.8071,1.123332 -3.80956,1.123332 -1.46521,0 -2.63739,-0.618647 -1.15589,-0.618646 -1.90478,-1.562896 v 8.416851 z m 2.65367,-15.173125 q 0,3.337437 1.35125,4.932894 1.35126,1.595457 3.27232,1.595457 1.95362,0 3.33744,-1.644298 1.40009,-1.660578 1.40009,-5.128255 0,-3.304876 -1.36753,-4.949174 -1.35126,-1.644298 -3.23976,-1.644298 -1.87222,0 -3.32116,1.758259 -1.43265,1.741979 -1.43265,5.079415 z" />
      <path
         inkscape:connector-curvature="0"
         id="path124898"
         style="font-style:normal;font-variant:normal;font-weight:normal;font-stretch:normal;font-size:33.3418px;line-height:1.25;font-family:Arial;-inkscape-font-specification:'Arial Normal';font-variant-ligatures:normal;font-variant-caps:normal;font-variant-numeric:normal;fill:#000000;fill-opacity:1;stroke-width:3.12579"
         d="M 579.40616,36.975731 V 13.108993 h 10.58211 q 3.19091,0 4.85149,0.651207 1.66058,0.634927 2.65367,2.262944 0.99309,1.628018 0.99309,3.597919 0,2.539708 -1.6443,4.281686 -1.64429,1.741979 -5.07941,2.214104 1.25357,0.602367 1.90478,1.188453 1.38382,1.269854 2.62111,3.174635 l 4.15144,6.49579 h -3.97236 l -3.15835,-4.965454 q -1.38382,-2.148983 -2.27923,-3.288595 -0.89541,-1.139613 -1.61174,-1.595458 -0.70004,-0.455845 -1.43265,-0.634927 -0.53725,-0.113961 -1.75826,-0.113961 h -3.66304 v 10.598395 z m 3.15835,-13.333464 h 6.78883 q 2.16527,0 3.38628,-0.439565 1.22101,-0.455845 1.85594,-1.432656 0.63493,-0.99309 0.63493,-2.148983 0,-1.693138 -1.2373,-2.78391 -1.22101,-1.090772 -3.87468,-1.090772 h -7.554 z" />
      <path
         inkscape:connector-curvature="0"
         id="path124900"
         style="font-style:normal;font-variant:normal;font-weight:normal;font-stretch:normal;font-size:33.3418px;line-height:1.25;font-family:Arial;-inkscape-font-specification:'Arial Normal';font-variant-ligatures:normal;font-variant-caps:normal;font-variant-numeric:normal;fill:#000000;fill-opacity:1;stroke-width:3.12579"
         d="m 602.37748,29.307768 2.97928,-0.260483 q 0.21164,1.790819 0.97681,2.946712 0.78144,1.139612 2.40946,1.85594 1.62802,0.700048 3.66304,0.700048 1.8071,0 3.19092,-0.537246 1.38381,-0.537246 2.0513,-1.465216 0.68377,-0.94425 0.68377,-2.051302 0,-1.123332 -0.65121,-1.953621 -0.65121,-0.846569 -2.14898,-1.416376 -0.96053,-0.374444 -4.24913,-1.155892 -3.2886,-0.797729 -4.60729,-1.497776 -1.70942,-0.89541 -2.55599,-2.214104 -0.83029,-1.334975 -0.83029,-2.979273 0,-1.807099 1.02565,-3.369996 1.02566,-1.579177 2.99556,-2.393186 1.9699,-0.814009 4.37936,-0.814009 2.65367,0 4.67241,0.86285 2.03503,0.846569 3.1258,2.507147 1.09077,1.660578 1.17217,3.76072 l -3.02811,0.227923 q -0.2442,-2.262945 -1.66058,-3.418837 -1.40009,-1.155893 -4.15144,-1.155893 -2.86532,0 -4.18401,1.058212 -1.30241,1.041931 -1.30241,2.523427 0,1.286134 0.92797,2.116423 0.91169,0.830289 4.75381,1.709419 3.8584,0.862849 5.29106,1.514056 2.08386,0.96053 3.07695,2.442026 0.99309,1.465216 0.99309,3.386277 0,1.904781 -1.09077,3.597919 -1.09077,1.676858 -3.14208,2.621108 -2.03502,0.92797 -4.59101,0.92797 -3.23975,0 -5.43758,-0.94425 -2.18154,-0.94425 -3.43511,-2.832751 -1.2373,-1.90478 -1.30242,-4.297966 z" />
      <path
         inkscape:connector-curvature="0"
         id="path124902"
         style="font-style:normal;font-variant:normal;font-weight:normal;font-stretch:normal;font-size:33.3418px;line-height:1.25;font-family:Arial;-inkscape-font-specification:'Arial Normal';font-variant-ligatures:normal;font-variant-caps:normal;font-variant-numeric:normal;fill:#000000;fill-opacity:1;stroke-width:3.12579"
         d="m 624.64876,29.307768 2.97927,-0.260483 q 0.21165,1.790819 0.97681,2.946712 0.78145,1.139612 2.40947,1.85594 1.62802,0.700048 3.66304,0.700048 1.8071,0 3.19091,-0.537246 1.38382,-0.537246 2.05131,-1.465216 0.68376,-0.94425 0.68376,-2.051302 0,-1.123332 -0.6512,-1.953621 -0.65121,-0.846569 -2.14899,-1.416376 -0.96053,-0.374444 -4.24912,-1.155892 -3.2886,-0.797729 -4.60729,-1.497776 -1.70942,-0.89541 -2.55599,-2.214104 -0.83029,-1.334975 -0.83029,-2.979273 0,-1.807099 1.02565,-3.369996 1.02565,-1.579177 2.99556,-2.393186 1.9699,-0.814009 4.37936,-0.814009 2.65367,0 4.67241,0.86285 2.03503,0.846569 3.1258,2.507147 1.09077,1.660578 1.17217,3.76072 l -3.02811,0.227923 q -0.24421,-2.262945 -1.66058,-3.418837 -1.4001,-1.155893 -4.15145,-1.155893 -2.86531,0 -4.184,1.058212 -1.30242,1.041931 -1.30242,2.523427 0,1.286134 0.92797,2.116423 0.91169,0.830289 4.75382,1.709419 3.8584,0.862849 5.29105,1.514056 2.08387,0.96053 3.07696,2.442026 0.99309,1.465216 0.99309,3.386277 0,1.904781 -1.09077,3.597919 -1.09078,1.676858 -3.14208,2.621108 -2.03502,0.92797 -4.59101,0.92797 -3.23975,0 -5.43758,-0.94425 -2.18154,-0.94425 -3.43511,-2.832751 -1.2373,-1.90478 -1.30242,-4.297966 z" />
      <path
         inkscape:connector-curvature="0"
         id="path124904"
         style="font-style:normal;font-variant:normal;font-weight:normal;font-stretch:normal;font-size:33.3418px;line-height:1.25;font-family:Arial;-inkscape-font-specification:'Arial Normal';font-variant-ligatures:normal;font-variant-caps:normal;font-variant-numeric:normal;fill:#000000;fill-opacity:1;stroke-width:3.12579"
         d="m 657.84405,36.975731 h -2.93044 V 18.302369 q -1.05821,1.009371 -2.78391,2.018742 -1.70941,1.009371 -3.07695,1.514056 v -2.832751 q 2.45831,-1.155892 4.29797,-2.80019 1.83966,-1.644298 2.60483,-3.190914 h 1.8885 z" />
    </g>
    <g
       style="fill:#000000;fill-opacity:1"
       id="textg99_LGD">
      <path
         inkscape:connector-curvature="0"
         id="path124907"
         style="font-size:33.3418px;line-height:1.25;font-family:Arial;-inkscape-font-specification:'Arial Normal';fill:#000000;fill-opacity:1;stroke-width:3.12579"
         d="M 887.49696,43.601763 V 19.686184 h 2.66995 v 2.246664 q 0.94425,-1.318694 2.1327,-1.969901 1.18845,-0.667487 2.88159,-0.667487 2.2141,0 3.90724,1.139612 1.69314,1.139612 2.55599,3.223475 0.86285,2.067582 0.86285,4.542169 0,2.653669 -0.96053,4.786372 -0.94425,2.116423 -2.76763,3.256035 -1.8071,1.123332 -3.80956,1.123332 -1.46522,0 -2.63739,-0.618647 -1.15589,-0.618646 -1.90478,-1.562896 v 8.416851 z m 2.65367,-15.173125 q 0,3.337437 1.35125,4.932894 1.35126,1.595457 3.27232,1.595457 1.95362,0 3.33743,-1.644298 1.4001,-1.660578 1.4001,-5.128255 0,-3.304876 -1.36754,-4.949174 -1.35125,-1.644298 -3.23975,-1.644298 -1.87222,0 -3.32116,1.758259 -1.43265,1.741979 -1.43265,5.079415 z" />
      <path
         inkscape:connector-curvature="0"
         id="path124909"
         style="font-size:33.3418px;line-height:1.25;font-family:Arial;-inkscape-font-specification:'Arial Normal';fill:#000000;fill-opacity:1;stroke-width:3.12579"
         d="m 905.25863,30.675303 2.93043,-0.390724 q 0.50469,2.490866 1.70942,3.597918 1.22101,1.090772 2.96299,1.090772 2.06758,0 3.48396,-1.432655 1.43265,-1.432656 1.43265,-3.549079 0,-2.018741 -1.31869,-3.321156 -1.31869,-1.318694 -3.35372,-1.318694 -0.83029,0 -2.06758,0.325604 l 0.32561,-2.572268 q 0.29304,0.03256 0.47212,0.03256 1.87222,0 3.37,-0.97681 1.49777,-0.976811 1.49777,-3.011833 0,-1.611737 -1.09077,-2.669949 -1.09077,-1.058211 -2.81647,-1.058211 -1.70942,0 -2.84903,1.074491 -1.13961,1.074492 -1.46522,3.223475 l -2.93043,-0.520965 q 0.53725,-2.946712 2.44203,-4.55845 1.90478,-1.628017 4.73753,-1.628017 1.95362,0 3.59792,0.846569 1.6443,0.830289 2.50715,2.279224 0.87913,1.448936 0.87913,3.076954 0,1.546616 -0.83029,2.81647 -0.83029,1.269854 -2.45831,2.018742 2.11642,0.488405 3.2886,2.035022 1.17217,1.530337 1.17217,3.842122 0,3.125793 -2.27923,5.307337 -2.27922,2.165263 -5.76318,2.165263 -3.14207,0 -5.22594,-1.87222 -2.06758,-1.87222 -2.36062,-4.851492 z" />
      <path
         inkscape:connector-curvature="0"
         id="path124911"
         style="font-size:33.3418px;line-height:1.25;font-family:Arial;-inkscape-font-specification:'Arial Normal';fill:#000000;fill-opacity:1;stroke-width:3.12579"
         d="m 923.80175,30.724143 3.07695,-0.260483 q 0.34189,2.246665 1.57918,3.386277 1.25357,1.123332 3.01183,1.123332 2.11643,0 3.58164,-1.595457 1.46522,-1.595457 1.46522,-4.232846 0,-2.507147 -1.41638,-3.956083 -1.40009,-1.448935 -3.67932,-1.448935 -1.41637,0 -2.55599,0.651207 -1.13961,0.634927 -1.79082,1.660578 l -2.75134,-0.358164 2.31178,-12.258973 h 11.86825 v 2.800191 h -9.5239 l -1.28614,6.414389 q 2.14898,-1.497776 4.50961,-1.497776 3.12579,0 5.27478,2.165263 2.14898,2.165264 2.14898,5.56782 0,3.239755 -1.8885,5.600381 -2.2955,2.897871 -6.26787,2.897871 -3.25603,0 -5.32362,-1.823379 -2.0513,-1.82338 -2.34434,-4.835213 z" />
      <path
         inkscape:connector-curvature="0"
         id="path124913"
         style="font-size:33.3418px;line-height:1.25;font-family:Arial;-inkscape-font-specification:'Arial Normal';fill:#000000;fill-opacity:1;stroke-width:3.12579"
         d="m 942.47511,29.307768 2.97927,-0.260483 q 0.21164,1.790819 0.97681,2.946712 0.78145,1.139612 2.40947,1.85594 1.62802,0.700048 3.66304,0.700048 1.8071,0 3.19091,-0.537246 1.38382,-0.537246 2.0513,-1.465216 0.68377,-0.94425 0.68377,-2.051302 0,-1.123332 -0.65121,-1.953621 -0.6512,-0.846569 -2.14898,-1.416376 -0.96053,-0.374444 -4.24912,-1.155892 -3.2886,-0.797729 -4.60729,-1.497776 -1.70942,-0.89541 -2.55599,-2.214104 -0.83029,-1.334975 -0.83029,-2.979273 0,-1.807099 1.02565,-3.369996 1.02565,-1.579177 2.99555,-2.393186 1.9699,-0.814009 4.37937,-0.814009 2.65367,0 4.67241,0.86285 2.03502,0.846569 3.12579,2.507147 1.09078,1.660578 1.17218,3.76072 l -3.02812,0.227923 q -0.2442,-2.262945 -1.66057,-3.418837 -1.4001,-1.155893 -4.15145,-1.155893 -2.86531,0 -4.184,1.058212 -1.30242,1.041931 -1.30242,2.523427 0,1.286134 0.92797,2.116423 0.91169,0.830289 4.75381,1.709419 3.85841,0.862849 5.29106,1.514056 2.08386,0.96053 3.07695,2.442026 0.99309,1.465216 0.99309,3.386277 0,1.904781 -1.09077,3.597919 -1.09077,1.676858 -3.14207,2.621108 -2.03502,0.92797 -4.59101,0.92797 -3.23976,0 -5.43758,-0.94425 -2.18154,-0.94425 -3.43512,-2.832751 -1.23729,-1.90478 -1.30241,-4.297966 z" />
    </g>
    <g
       style="fill:#000000;fill-opacity:1"
       id="textg106_LGD">
      <path
         inkscape:connector-curvature="0"
         id="path124916"
         style="font-size:33.3418px;line-height:1.25;font-family:Arial;-inkscape-font-specification:'Arial Normal';fill:#000000;fill-opacity:1;stroke-width:3.12579"
         d="M 1054.4904,36.975731 V 15.925463 h -7.8634 v -2.81647 h 18.9176 v 2.81647 h -7.8959 v 21.050268 z" />
      <path
         inkscape:connector-curvature="0"
         id="path124918"
         style="font-size:33.3418px;line-height:1.25;font-family:Arial;-inkscape-font-specification:'Arial Normal';fill:#000000;fill-opacity:1;stroke-width:3.12579"
         d="m 1063.6235,28.330957 q 0,-4.802652 2.67,-7.114437 2.2304,-1.92106 5.4376,-1.92106 3.5653,0 5.8283,2.344345 2.2629,2.328065 2.2629,6.44695 0,3.337436 -1.0094,5.258497 -0.9931,1.90478 -2.9141,2.962992 -1.9048,1.058211 -4.1677,1.058211 -3.6305,0 -5.8772,-2.328065 -2.2304,-2.328065 -2.2304,-6.707433 z m 3.0119,0 q 0,3.321156 1.4489,4.981734 1.4489,1.644298 3.6468,1.644298 2.1815,0 3.6304,-1.660578 1.449,-1.660578 1.449,-5.063135 0,-3.207194 -1.4652,-4.851492 -1.449,-1.660578 -3.6142,-1.660578 -2.1979,0 -3.6468,1.644298 -1.4489,1.644297 -1.4489,4.965453 z" />
      <path
         inkscape:connector-curvature="0"
         id="path124920"
         style="font-size:33.3418px;line-height:1.25;font-family:Arial;-inkscape-font-specification:'Arial Normal';fill:#000000;fill-opacity:1;stroke-width:3.12579"
         d="m 1089.6718,34.354623 0.4233,2.588548 q -1.2373,0.260482 -2.2141,0.260482 -1.5955,0 -2.4746,-0.504685 -0.8791,-0.504686 -1.2373,-1.318694 -0.3581,-0.830289 -0.3581,-3.467678 v -9.947187 h -2.149 v -2.279225 h 2.149 v -4.281686 l 2.9141,-1.758259 v 6.039945 h 2.9467 v 2.279225 h -2.9467 v 10.109989 q 0,1.253573 0.1465,1.611737 0.1628,0.358164 0.5047,0.569806 0.3582,0.211643 1.0094,0.211643 0.4884,0 1.2861,-0.113961 z" />
      <path
         inkscape:connector-curvature="0"
         id="path124922"
         style="font-size:33.3418px;line-height:1.25;font-family:Arial;-inkscape-font-specification:'Arial Normal';fill:#000000;fill-opacity:1;stroke-width:3.12579"
         d="m 1103.803,34.843028 q -1.628,1.383815 -3.1421,1.953621 -1.4977,0.569806 -3.2234,0.569806 -2.8491,0 -4.3794,-1.383815 -1.5303,-1.400095 -1.5303,-3.565358 0,-1.269854 0.5698,-2.311785 0.586,-1.058212 1.514,-1.693139 0.9443,-0.634927 2.1164,-0.96053 0.8629,-0.227923 2.6049,-0.439565 3.549,-0.423284 5.2259,-1.009371 0.016,-0.602366 0.016,-0.765168 0,-1.790819 -0.8303,-2.523427 -1.1233,-0.993091 -3.3374,-0.993091 -2.0676,0 -3.0607,0.732608 -0.9768,0.716328 -1.4489,2.555987 l -2.8654,-0.390724 q 0.3908,-1.83966 1.2862,-2.962992 0.8954,-1.139612 2.5885,-1.741979 1.6932,-0.618646 3.9235,-0.618646 2.2141,0 3.598,0.520965 1.3838,0.520966 2.035,1.318695 0.6512,0.781448 0.9117,1.986181 0.1465,0.748888 0.1465,2.702509 v 3.907243 q 0,4.086324 0.1791,5.177096 0.1953,1.074491 0.7489,2.067582 h -3.0607 q -0.4559,-0.91169 -0.5861,-2.132703 z m -0.2442,-6.544631 q -1.5955,0.651207 -4.7864,1.107052 -1.8071,0.260483 -2.556,0.586086 -0.7488,0.325604 -1.1558,0.960531 -0.4071,0.618646 -0.4071,1.383815 0,1.172172 0.8792,1.953621 0.8954,0.781448 2.6048,0.781448 1.6931,0 3.0118,-0.732608 1.3187,-0.748888 1.9374,-2.035022 0.4721,-0.99309 0.4721,-2.930431 z" />
      <path
         inkscape:connector-curvature="0"
         id="path124924"
         style="font-size:33.3418px;line-height:1.25;font-family:Arial;-inkscape-font-specification:'Arial Normal';fill:#000000;fill-opacity:1;stroke-width:3.12579"
         d="M 1111.0151,36.975731 V 13.108993 h 2.9305 v 23.866738 z" />
    </g>
  </g>
</svg>
