<?xml version="1.0" encoding="UTF-8" standalone="no"?>
<svg
              xmlns:dc="http://purl.org/dc/elements/1.1/"
              xmlns:cc="http://creativecommons.org/ns#"
              xmlns:rdf="http://www.w3.org/1999/02/22-rdf-syntax-ns#"
              xmlns:svg="http://www.w3.org/2000/svg"
              xmlns="http://www.w3.org/2000/svg"
              xmlns:sodipodi="http://sodipodi.sourceforge.net/DTD/sodipodi-0.dtd"
              xmlns:inkscape="http://www.inkscape.org/namespaces/inkscape"
              inkscape:version="0.92.3 (unknown)"
              sodipodi:docname="PlateSimple.svg"
              id="svg123812"
              version="1.1"
              viewBox="0 0 1151 607"
              height="51.3797mm"
              width="97.4268mm">
             <metadata
                           id="metadata123818">
                          <rdf:RDF>
                                       <cc:Work
                                                     rdf:about="">
                                                    <dc:format>image/svg+xml</dc:format>
                                                    <dc:type
                                                                  rdf:resource="http://purl.org/dc/dcmitype/StillImage" />
                                                    <dc:title />
                                       </cc:Work>
                          </rdf:RDF>
             </metadata>
             <defs
                           id="defs123816" />
             <sodipodi:namedview
                           inkscape:current-layer="g193"
                           inkscape:window-maximized="1"
                           inkscape:window-y="24"
                           inkscape:window-x="65"
                           inkscape:cy="98.962212"
                           inkscape:cx="167.21441"
                           inkscape:zoom="3.4737399"
                           showgrid="false"
                           id="namedview123814"
                           inkscape:window-height="1056"
                           inkscape:window-width="1855"
                           inkscape:pageshadow="2"
                           inkscape:pageopacity="0"
                           guidetolerance="10"
                           gridtolerance="10"
                           objecttolerance="10"
                           borderopacity="1"
                           inkscape:document-rotation="0"
                           bordercolor="#666666"
                           pagecolor="#ffffff" />
             <g
                           id="g193">
                          <path
                                        id="path124763"
                                        style="fill:none;stroke:#000000;stroke-opacity:1"
                                        d="m 132,338 c 4.17628,12.89127 13.44913,5.8765 0,0 z"
                                        inkscape:connector-curvature="0" />
                          <path
                                        id="path124759"
                                        style="fill:none;stroke:#000000;stroke-opacity:1"
                                        d="m 173,57 c 1.12011,2.74845 -2.69922,-1.140502 0,0 z"
                                        inkscape:connector-curvature="0" />
                          <path
                                        id="path124757"
                                        style="fill:none;stroke:#000000;stroke-opacity:1"
                                        d="m 188,48 c 1.27887,13.622051 -11.78103,-7.809831 -12.77312,7.354844 C 174.5694,57.471881 168.96385,44.88775 167,57 c -25.12084,-11.221062 -18.6197,34.091722 -25.34266,48.75906 -3.96253,18.4127 -9.26914,37.39932 -15.01984,54.59516 -1.27578,17.59031 -6.70886,28.26431 -9.1402,48.86551 -4.3851,10.46875 0.57783,19.43601 -3.68535,24.46664 -0.69239,10.58686 -1.6689,21.61358 0.094,31.92722 -0.314,2.31661 -0.94909,14.46857 0.54648,21.71503 4.13096,16.5387 3.40874,35.15108 15.84696,48.37388 12.35007,3.59072 4.64747,-8.04701 2.70062,-14.7025 7.3366,2.26223 1.66043,-11.46461 5.56274,-14.01567 -0.96793,-9.85498 -1.22732,-20.07706 1.52445,-29.24902 -8.32507,-3.106 4.226,-5.06792 1.00281,-16.73472 -0.24413,-1.32515 10.23151,-7.44882 1.91,-15.00059 7.68701,-17.50982 12.9295,-37.88836 17,-59 4.13885,-8.37396 8.23562,-18.13246 9.02283,-27.0167 0.46354,-8.7107 11.71859,-28.98043 8.2967,-26.11533 C 182.99721,114.45842 191.00619,94.949584 192,74 199.34908,61.662397 209.88113,53.119694 188,48 Z"
                                        inkscape:connector-curvature="0" />
                          <path
                                        id="path124755"
                                        style="fill:none;stroke:#000000;stroke-opacity:1"
                                        d="m 341,44 c -5.58781,10.293088 -22.74981,-3.242696 -23.8225,16.9625 -4.40282,13.194531 -15.65316,38.653751 -12.0675,37.6425 -5.19294,9.69804 -9.89427,25.79734 -14.4799,32.68966 -2.58828,9.55585 -5.08235,19.21616 -9.77713,27.56628 C 276.54809,177.55566 263.49886,197.54528 262,218 251.69035,235.36064 245.63263,255.81763 237.3426,275.21195 233.76584,285.0117 229.04547,294.37793 225,304 c 4.00315,2.90552 -7.30557,12.5824 -5.97,19 -15.09584,4.94446 -16.77178,30.59575 -20.92328,33.30141 -23.14394,7.50277 7.90408,10.7053 16.59134,2.05298 10.37899,-5.41047 10.95439,-10.65597 17.46913,-10.41423 C 243.60239,329.54631 259.29877,316.00315 269.35,296 c 1.61705,-13.03549 16.24176,-23.23664 9.95706,-32 -7.67063,3.56691 18.78701,-15.52303 11.02109,-22.22136 10.52885,-3.46052 10.87581,-21.06764 16.73074,-30.90064 6.59865,-15.08441 10.7377,-27.95738 18.5792,-42.1639 8.55241,-14.52206 14.27714,-30.22828 19.49222,-46.01598 9.5478,-13.03964 -0.63646,-13.75841 8.77297,-22.00359 0.39703,-19.295476 23.97851,-32.28456 18.64797,-49.42828 -9.82041,-6.765204 -20.47578,-6.202297 -23.10531,-3.536875 C 346.99256,45.789785 343.96054,44.830047 341,44 Z"
                                        inkscape:connector-curvature="0" />
                          <g
                                        id="SHR">
                                       <path
                                                     inkscape:connector-curvature="0"
                                                     d="m 311,44 c 1.67207,10.701703 -12.76379,-1.293749 -13.85158,2.445253 -9.81117,-5.892859 -10.83268,6.793931 -13.8788,13.6621 -0.93885,6.990154 -8.14274,20.304433 -10.41804,8.3379 3.92074,-9.105882 8.87102,-28.807715 -0.39627,-7.614315 -7.91378,4.212607 -10.46757,23.759088 -16.89156,35.115312 -2.58631,13.99523 -10.30119,27.07062 -12.60652,40.64203 -6.38638,4.13969 -3.03397,27.86751 -8.95723,24.06525 -3.51109,-9.0384 -8.18747,17.76533 -14.34875,19.82397 -3.30546,16.11504 -8.43407,30.52173 -16.34753,43.53214 -11.3689,11.75521 7.0651,9.09856 3.25862,18.42473 -3.32793,21.95846 -11.1667,43.51753 -21.75257,63.8898 C 174.64935,312.98497 177.32031,336.60694 163,321 c 6.95667,-11.88255 10.90838,-23.88239 12.21003,-38.56183 -0.81842,-13.08836 17.50795,-25.8143 5.97997,-34.53817 0.95797,-13.6981 5.28705,-27.44448 8.21375,-40.89406 1.53486,-7.85397 11.92967,-22.36869 18.38346,-32.55946 3.31884,-12.5321 1.33757,-24.1888 17.60279,-22.04648 7.3189,-10.52182 8.2623,-24.21013 15.20463,-35.25614 3.82692,-10.03274 13.66451,-32.617684 7.73352,-33.365218 7.94916,-3.809897 27.98605,-38.485858 6.81107,-31.966575 -9.46536,-9.610623 -18.10463,9.99129 -18.68684,0.0292 -4.52088,-10.846257 -16.34181,6.959481 -25.69989,-5.465019 -3.72333,5.201483 -5.29653,15.524097 -8.19548,22.689051 -2.59184,11.451769 -4.24409,23.39815 -8.58326,34.114865 -4.9258,25.27422 -9.67814,47.00173 -20.97117,69.38884 -4.34909,11.41292 -5.08148,23.6887 -10.89188,34.72342 -3.91865,10.82232 -3.62953,22.50922 -8.65789,32.96852 -3.10449,21.74031 -8.76012,42.09142 -10.42664,64.56135 2.29797,14.12768 -2.78149,29.29275 4.04073,42.40956 8.96566,20.32285 35.10359,18.12281 45.02185,1.23065 5.69835,-13.97677 18.70214,-22.86057 24.77523,-37.55177 3.46399,-9.85945 7.1036,-17.90165 11.04851,-28.44629 5.64182,-14.11696 9.21055,-27.02327 16.45518,-39.68069 C 247.28806,230.08353 257.06758,222.38769 253,207 c 11.73727,-13.82283 14.91003,-33.90871 21.26766,-51.68094 1.0437,-6.06369 6.38198,-15.34457 7.87991,-23.57249 3.44276,-5.78653 6.6299,-12.81192 11.04243,-19.78657 4.03757,-17.670749 13.49599,-31.831056 16.46625,-50.49375 C 308.24186,54.854715 326.02786,44.391183 311,44 Z"
                                                     style="fill:none;stroke:#000000;stroke-opacity:1"
                                                     id="path124753" />
                          </g>
                          <path
                                        id="path124749"
                                        style="fill:none;stroke:#000000;stroke-opacity:1"
                                        d="m 142,306 c -1.12011,2.74845 2.69922,-1.1405 0,0 z"
                                        inkscape:connector-curvature="0" />
                          <path
                                        id="path124747"
                                        style="fill:none;stroke:#000000;stroke-opacity:1"
                                        d="m 142,303 c -1.12011,2.74845 2.69922,-1.1405 0,0 z"
                                        inkscape:connector-curvature="0" />
                          <g
                                        id="QHB">
                                       <path
                                                     inkscape:connector-curvature="0"
                                                     d="m 139,348 c 3.5394,19.84116 25.58843,32.54015 39.68036,20.16495 -2.49413,-8.42463 -22.27327,-0.26433 -27.88468,-14.56279 C 149.08026,350.87864 144.91278,343.97573 139,348 Z"
                                                     style="fill:none;stroke:#000000;stroke-opacity:1"
                                                     id="path124751" />
                                       <path
                                                     inkscape:connector-curvature="0"
                                                     d="m 263,66 c -15.12879,17.110966 -13.42346,41.44508 -26.58375,60.15984 -4.4428,14.41804 -9.07748,33.78244 -22.16107,29.42805 -3.71506,8.64389 -3.16903,20.31221 -10.27518,26.71086 -15.5756,15.24085 -15.54299,40.60426 -22.8091,60.23631 6.5255,9.61055 5.78862,14.55534 -2.2909,25.46494 -2.36581,20.90809 -7.18263,38.47018 -11.75859,54.14938 10.52386,2.44221 14.72471,-17.63402 22.50853,-24.62354 5.34369,-20.67227 18.37214,-39.35539 13.94303,-60.25756 -11.89263,-7.55579 8.02704,-25.70891 9.0489,-35.73922 C 216.65194,189.18696 217.88546,187.00619 220,174 c 9.10204,-5.40131 10.28987,-18.91221 17.42437,-16.42891 -1.96776,-22.43845 16.23499,-44.82521 19.18641,-68.771058 C 263.6211,77.097312 267.09838,63.948429 271,51 c -5.98517,2.113067 -8.64664,9.123156 -8,15 z"
                                                     style="fill:none;stroke:#000000;stroke-opacity:1"
                                                     id="path124745" />
                          </g>
                          <path
                                        id="path124735"
                                        style="fill:none;stroke:#000000;stroke-opacity:1"
                                        d="m 122,323 c -1.12011,2.74845 2.69922,-1.1405 0,0 z"
                                        inkscape:connector-curvature="0" />
                          <path
                                        id="path124713"
                                        style="fill:none;stroke:#000000;stroke-opacity:1"
                                        d="m 107,242 c -1.12011,2.74845 2.69922,-1.1405 0,0 z"
                                        inkscape:connector-curvature="0" />
                          <path
                                        id="path124701"
                                        style="fill:none;stroke:#000000;stroke-opacity:1"
                                        d="m 326,166 c -1.12011,2.74845 2.69922,-1.1405 0,0 z"
                                        inkscape:connector-curvature="0" />
                          <path
                                        id="path124675"
                                        style="fill:none;stroke:#000000;stroke-opacity:1"
                                        d="m 375,75 c -1.12011,2.74845 2.69922,-1.140502 0,0 z"
                                        inkscape:connector-curvature="0" />
                          <path
                                        id="path124673"
                                        style="fill:none;stroke:#000000;stroke-opacity:1"
                                        d="m 371,64 c -1.12011,2.74845 2.69922,-1.140502 0,0 z"
                                        inkscape:connector-curvature="0" />
                          <path
                                        id="path124671"
                                        style="fill:none;stroke:#000000;stroke-opacity:1"
                                        d="m 144,62 c -1.12011,2.74845 2.69922,-1.140502 0,0 z"
                                        inkscape:connector-curvature="0" />
                          <g
                                        id="SCR">
                                       <path
                                                     inkscape:connector-curvature="0"
                                                     d="m 203,49 c 0.74461,14.351976 -11.72512,23.681353 -11.96,38.18875 -2.84609,15.91293 -7.95625,29.70185 -12.51825,45.41127 C 175.39099,143.8788 169.80536,155.25409 171,167 160.51892,178.1134 162.27063,195.88879 155.98492,208.43612 149.73418,225.71442 147.30972,243.86984 145,262 c -7.79871,8.58215 -4.07991,22.72397 -6.60432,33.76689 0.27005,8.97281 -0.62474,20.79168 -2.74215,27.23311 0.70416,4.70979 0.77991,20.38665 8.34647,22 -1.58203,-12.8398 0.2261,-25.6652 -1.83986,-38.33437 2.90179,-20.99922 5.03146,-42.17865 10.34392,-62.67985 C 154.41501,223.71055 168.3253,201.88915 167,181 c 12.04816,-14.32498 14.46978,-33.94555 21.3,-51 0.0872,-12.36351 8.28677,-23.3013 5.7,-36 6.10808,-8.094053 6.21941,-19.435419 9.56,-29 -2.73983,-5.552568 9.51379,-11.618509 -0.56,-16 z"
                                                     style="fill:none;stroke:#000000;stroke-opacity:1"
                                                     id="path124669" />
                                       <path
                                                     inkscape:connector-curvature="0"
                                                     d="m 295,113 c -15.21062,18.20204 -18.42313,43.60862 -27.01484,63.98328 -2.30315,13.23514 -14.13891,28.91487 -15.1683,45.32033 -5.16311,15.68932 -11.21523,29.03437 -17.766,41.21769 -5.98235,14.07935 -9.21057,27.40678 -15.07055,41.39323 -9.41239,22.50569 -24.74696,37.82404 -39.34885,57.11379 3.63045,8.38515 11.96438,1.80574 6.64591,-2.45411 19.49384,-0.40773 12.1507,-22.06452 25.94263,-31.57421 13.29176,-13.58332 11.96309,-34.05102 22.7675,-48.06625 6.21207,-22.36113 18.53037,-42.49383 24.51971,-64.9819 6.86363,-18.03263 13.65942,-36.1663 18.99202,-54.61647 C 285.44033,148.55085 290.20728,135.91222 292,123 c 10.34541,-15.34588 12.17263,-33.789481 20.70945,-50.263095 4.01989,-10.563459 7.88728,-21.323655 12.12844,-31.550108 -4.22356,-6.673061 -9.47282,12.731352 -12.67428,18.759266 -4.99222,17.071986 -13.28078,33.129791 -17.30488,50.430047 z"
                                                     style="fill:none;stroke:#000000;stroke-opacity:1"
                                                     id="path124667" />
                          </g>
                          <path
                                        id="path124665"
                                        style="fill:none;stroke:#000000;stroke-opacity:1"
                                        d="m 132,338 c 4.17628,12.89127 13.44913,5.8765 0,0 z"
                                        inkscape:connector-curvature="0" />
                          <path
                                        id="path124661"
                                        style="fill:none;stroke:#000000;stroke-opacity:1"
                                        d="m 173,57 c 1.12011,2.74845 -2.69922,-1.140502 0,0 z"
                                        inkscape:connector-curvature="0" />
                          <g
                                        id="CMZ">
                                       <path
                                                     inkscape:connector-curvature="0"
                                                     d="m 188,48 c 1.27887,13.622051 -11.78103,-7.809831 -12.77312,7.354844 C 174.5694,57.471881 168.96385,44.88775 167,57 c -25.12084,-11.221062 -18.6197,34.091722 -25.34266,48.75906 -3.96253,18.4127 -9.26914,37.39932 -15.01984,54.59516 -1.27578,17.59031 -6.70886,28.26431 -9.1402,48.86551 -4.3851,10.46875 0.57783,19.43601 -3.68535,24.46664 -0.69239,10.58686 -1.6689,21.61358 0.094,31.92722 -0.314,2.31661 -0.94909,14.46857 0.54648,21.71503 4.13096,16.5387 3.40874,35.15108 15.84696,48.37388 12.35007,3.59072 4.64747,-8.04701 2.70062,-14.7025 7.3366,2.26223 1.66043,-11.46461 5.56274,-14.01567 -0.96793,-9.85498 -1.22732,-20.07706 1.52445,-29.24902 -8.32507,-3.106 4.226,-5.06792 1.00281,-16.73472 -0.24413,-1.32515 10.23151,-7.44882 1.91,-15.00059 7.68701,-17.50982 12.9295,-37.88836 17,-59 4.13885,-8.37396 8.23562,-18.13246 9.02283,-27.0167 0.46354,-8.7107 11.71859,-28.98043 8.2967,-26.11533 C 182.99721,114.45842 191.00619,94.949584 192,74 199.34908,61.662397 209.88113,53.119694 188,48 Z"
                                                     style="fill:none;stroke:#000000;stroke-opacity:1"
                                                     id="path124659" />
                                       <path
                                                     inkscape:connector-curvature="0"
                                                     d="m 341,44 c -5.58781,10.293088 -22.74981,-3.242696 -23.8225,16.9625 -4.40282,13.194531 -15.65316,38.653751 -12.0675,37.6425 -5.19294,9.69804 -9.89427,25.79734 -14.4799,32.68966 -2.58828,9.55585 -5.08235,19.21616 -9.77713,27.56628 C 276.54809,177.55566 263.49886,197.54528 262,218 251.69035,235.36064 245.63263,255.81763 237.3426,275.21195 233.76584,285.0117 229.04547,294.37793 225,304 c 4.00315,2.90552 -7.30557,12.5824 -5.97,19 -15.09584,4.94446 -16.77178,30.59575 -20.92328,33.30141 -23.14394,7.50277 7.90408,10.7053 16.59134,2.05298 10.37899,-5.41047 10.95439,-10.65597 17.46913,-10.41423 C 243.60239,329.54631 259.29877,316.00315 269.35,296 c 1.61705,-13.03549 16.24176,-23.23664 9.95706,-32 -7.67063,3.56691 18.78701,-15.52303 11.02109,-22.22136 10.52885,-3.46052 10.87581,-21.06764 16.73074,-30.90064 6.59865,-15.08441 10.7377,-27.95738 18.5792,-42.1639 8.55241,-14.52206 14.27714,-30.22828 19.49222,-46.01598 9.5478,-13.03964 -0.63646,-13.75841 8.77297,-22.00359 0.39703,-19.295476 23.97851,-32.28456 18.64797,-49.42828 -9.82041,-6.765204 -20.47578,-6.202297 -23.10531,-3.536875 C 346.99256,45.789785 343.96054,44.830047 341,44 Z"
                                                     style="fill:none;stroke:#000000;stroke-opacity:1"
                                                     id="path124657" />
                          </g>
                          <path
                                        id="path124651"
                                        style="fill:none;stroke:#000000;stroke-opacity:1"
                                        d="m 148,349 c 1.11336,5.31351 4.20157,5.19421 0,0 z"
                                        inkscape:connector-curvature="0" />
                          <path
                                        id="path124649"
                                        style="fill:none;stroke:#000000;stroke-opacity:1"
                                        d="m 146,348 c -1.12011,2.74845 2.69922,-1.1405 0,0 z"
                                        inkscape:connector-curvature="0" />
                          <path
                                        id="path124647"
                                        style="fill:none;stroke:#000000;stroke-opacity:1"
                                        d="m 138,348 c 4.31235,10.04365 10.80934,15.45148 0,0 z"
                                        inkscape:connector-curvature="0" />
                          <path
                                        id="path124645"
                                        style="fill:none;stroke:#000000;stroke-opacity:1"
                                        d="m 140,348 c 5.31351,-1.11336 5.19421,-4.20157 0,0 z"
                                        inkscape:connector-curvature="0" />
                          <path
                                        id="path124641"
                                        style="fill:none;stroke:#000000;stroke-opacity:1"
                                        d="m 110,228 c -0.97346,8.16795 -3.03112,18.76173 -3.97,28.34647 -1.38329,21.87074 2.2489,44.5563 11.43,64.56353 0.38042,11.90925 9.68471,19.5044 16.54,28.09 2.16639,-12.25951 -20.50724,-30.57779 -17.31,-49 -4.53333,-14.91423 -2.42623,-30.82859 -4.22875,-46.05812 C 110.08717,249.37951 118.05445,226.12788 110,228 Z"
                                        inkscape:connector-curvature="0" />
                          <path
                                        id="path124637"
                                        style="fill:none;stroke:#000000;stroke-opacity:1"
                                        d="M 374,60 C 368.49311,73.716671 357.34589,84.868243 356.38883,100.2104 349.99518,113.23464 344.48829,127.37282 338.37999,141.94649 332.94169,155.01908 326.16421,167.35148 320.61518,180.37743 313.39936,193.5368 310.10786,208.39547 302.47677,221.45034 297.24145,236.10696 288.00471,249.01344 282.96204,263.64266 281.08142,278.31384 272.87659,289.23368 266.02785,301.84419 256.81533,319.02652 242.32277,332.58033 231.49,348.73 215.92883,360.58553 187.96978,372.34485 174.9521,362.9521 181.1363,370.86881 174.65133,369.63527 191.02523,371.38072 210.79874,369.91732 230.46357,360.93987 242.36047,344.87621 256.85643,327.79211 272.97567,311.06392 279.64344,289.16141 290.27228,272.71161 295.44834,253.6378 306.75791,237.10775 317.31633,223.00045 318.99825,205.02767 326.34,190.28875 327.31715,173.987 339.54201,160.79475 344.01619,145.23044 351.62191,131.51203 358.05856,117.29265 363.12732,102.4953 367.53357,88.657758 374.6757,75.880848 383,64 380,62.666667 377,61.333333 374,60 Z"
                                        inkscape:connector-curvature="0" />
                          <path
                                        id="path124635"
                                        style="fill:none;stroke:#000000;stroke-opacity:1"
                                        d="m 146,54 c -3.5812,12.061341 -6.06315,24.130427 -8.77254,36.450142 -5.67394,17.630258 -11.42935,35.337238 -16.42183,53.084548 -4.54474,15.28045 -5.66181,33.13912 -8.50219,49.68015 1.669,7.75859 -6.01315,32.91279 3.12899,27.12717 C 119.44521,196.5288 122.67745,172.57163 128,149 c 6.83896,1.06761 3.03305,-14.66357 5.56681,-20.39006 3.05534,-6.07913 5.71175,-13.94647 7.4159,-21.90939 4.69641,-14.566441 3.8123,-30.223438 9.5033,-44.620274 C 152.70172,56.082468 152.27691,55.425041 146,54 Z"
                                        inkscape:connector-curvature="0" />
                          <path
                                        id="path124633"
                                        style="fill:none;stroke:#000000;stroke-opacity:1"
                                        d="m 374,84 c -9.56022,8.577181 -12.03026,25.936 -18.80625,38.225 -6.14459,16.60039 -16.85852,36.29627 -25.78695,55.14238 -3.33091,13.94831 -9.00528,33.07215 -9.64539,36.34356 -9.95131,18.07563 -17.95311,35.41728 -27.03141,51.57906 -12.3319,20.34135 -15.18579,41.13392 -32.08967,57.48695 -12.85552,13.52789 -18.41977,28.5503 -33.97315,37.60165 C 213.23446,367.75175 198.30035,371.52531 183,372 c 14.67584,6.67113 42.52113,1.21209 55.85931,-14.09482 10.39361,-4.64001 18.1211,-12.30665 24.29694,-21.76083 C 271.86606,327.23393 280.60746,312.5059 281,303 c 10.32909,-3.73551 13.95317,-19.113 23.45078,-28.69941 5.34503,-11.03268 6.461,-23.4386 13.70905,-33.89527 7.05701,-14.95262 4.7377,-31.13583 17.35955,-39.39688 7.88229,-11.34329 -8.08331,-7.54205 1.73373,-11.12877 7.69502,-17.32216 21.2451,-38.54775 30.96689,-56.28967 0.44108,-9.80576 9.85143,-17.88817 15.12081,-33.635679 C 397.34191,89.6757 375.71325,64.788849 374,84 Z"
                                        inkscape:connector-curvature="0" />
                          <path
                                        id="path124631"
                                        style="fill:none;stroke:#000000;stroke-opacity:1"
                                        d="m 132,45 c -2.40992,14.748968 -5.25153,29.490486 -7.14764,44.198677 -3.30749,11.112143 -2.28986,22.852723 -5.37205,34.123353 -7.55801,10.53942 -15.49621,27.90279 -15.52101,45.0411 -3.59768,10.16624 -2.80332,20.86329 -5.016761,31.19744 C 96.965304,217.62529 96.897804,235.80799 97.13,254 c 10.4596,-2.49261 -8.781957,8.38835 2.204138,13.1703 -0.908893,8.71242 3.508062,18.6842 2.071412,27.0068 3.0457,21.01605 13.02284,41.64003 29.09273,55.56696 5.25149,6.16989 18.55435,11.51889 6.91469,0.3725 -7.52197,-4.47269 -23.3946,-21.59019 -20.06297,-27.52875 -6.12833,-14.70171 -8.55237,-10.23579 -8.47625,-26.87265 -7.79625,-4.22016 2.17564,-8.33076 -3.37605,-20.67786 -3.53847,-10.32388 0.39702,-11.68941 0.35458,-22.62699 3.36085,-7.71811 -0.53863,-17.00679 3.47647,-24.02031 -0.76025,-9.80703 -3.9304,-1.85233 -0.32888,-8.89033 3.03703,-13.90713 3.98377,-35.20005 5.92669,-50.1842 1.99039,-9.9095 4.0202,-20.25312 5.24344,-30.31547 9.38144,-11.9467 3.10374,-23.31842 12.0102,-34.55274 4.55402,-15.463385 7.24636,-30.24139 13.57341,-47.241889 C 149.47396,46.736519 139.15896,46.594186 132,45 Z"
                                        inkscape:connector-curvature="0" />
                          <path
                                        id="path124629"
                                        style="fill:none;stroke:#000000;stroke-opacity:1"
                                        d="m 156,370 c 6.23517,4.15678 8.25044,5.50029 0,0 z"
                                        inkscape:connector-curvature="0" />
                          <path
                                        id="path124627"
                                        style="fill:none;stroke:#000000;stroke-opacity:1"
                                        d="m 149,367 c 6.14952,3.07476 7.46136,3.73068 0,0 z"
                                        inkscape:connector-curvature="0" />
                          <path
                                        id="path124617"
                                        style="fill:none;stroke:#000000;stroke-opacity:1"
                                        d="m 92,307 c 5.364724,12.97558 13.86794,24.77011 22.20062,36.02217 7.10906,10.34244 18.63996,16.94908 29.12753,23.19919 C 155.27364,364.79603 129.74306,353.84203 126.72,345.82 109.86804,336.16507 112.34061,305.10294 92,307 Z"
                                        inkscape:connector-curvature="0" />
                          <path
                                        id="path124615"
                                        style="fill:none;stroke:#000000;stroke-opacity:1"
                                        d="m 376.86,120 c -11.13868,19.8054 -21.90033,36.9996 -32.14,56.83 -5.17194,14.56611 -10.4329,27.84391 -18.88059,41.0012 -5.08602,11.03756 -5.11052,24.81702 -11.96894,33.14989 -2.31529,18.90051 -19.53618,37.40729 -29.77047,54.60891 -13.74816,16.52281 -18.84665,38.2197 -38.82663,48.81371 -13.23657,7.84343 -24.43975,20.19781 -41.08681,20.21957 C 192.25367,383.27557 175.28396,363.33516 171,375 c 20.00543,11.58365 40.03195,4.51859 60.15699,1.33969 20.99094,-8.68094 33.87763,-21.44395 51.6691,-36.09203 C 296.84544,326.36802 310.87938,308.503 315,292 c 11.76978,-11.29044 17.38505,-28.7872 25.87484,-43.48219 2.72427,-9.47112 21.94157,-22.90257 15.80032,-34.84515 2.36524,-6.29515 7.58902,-10.85769 7.22904,-22.57686 4.07838,-11.57085 2.07301,-24.2034 8.86725,-37.42999 4.37909,-15.11742 18.322,-26.23998 12.3898,-40.39081 -4.75233,-2.93094 -10.10712,1.55474 -8.30125,6.725 z"
                                        inkscape:connector-curvature="0" />
                          <path
                                        id="path124613"
                                        style="fill:none;stroke:#000000;stroke-opacity:1"
                                        d="m 114,56 c -16.468426,9.27414 -9.15454,29.140238 -17.032816,44.56635 -5.36885,14.51108 -9.72603,29.65519 -10.789717,44.89055 -7.13429,14.1151 -3.278555,37.46819 -3.586106,47.74742 -2.954679,18.94389 -5.222614,43.17889 -3.386361,61.13443 5.26365,19.7414 5.508915,33.84004 13.205,51.09125 24.51939,4.9627 -3.163069,-13.80488 2.609363,-8.83194 9.385267,0.82344 3.327628,-12.23685 3.708836,-19.96209 -2.488903,-11.87429 -4.441388,-25.32814 -2.815543,-35.978 0.700713,-19.49057 1.166658,-42.19746 3.930625,-57.11953 5.287619,-18.19341 2.618549,-40.64699 14.546719,-53.38203 9.64607,-13.06342 4.19762,-30.200978 10.41649,-44.301383 -1.38411,-9.603182 2.1842,-16.222275 3.88975,-26.420246 -1.67501,-9.186848 7.258,-13.823821 -5.68733,-15.909312 C 111.86154,32.5504 102.42793,50.299847 114,56 Z"
                                        inkscape:connector-curvature="0" />
                          <path
                                        d="m 124,556.65 c -11.98,5.14 -6.58,17.61 2,19.06 13.69,2.31 13.22,-21.68 -2,-19.06 z"
                                        id="path124611"
                                        style="fill:none;stroke:#000000;stroke-opacity:1" />
                          <path
                                        d="m 112,546 c -7.91,1.89 -11.76,5.71 -11.98,14 -0.09,3.11 -0.33,7.21 2.29,9.4 1.29,1.08 3,1.48 4.65,1.32 6.53,-0.66 7.26,-8.68 6.62,-13.72 0,0 -1.58,-11 -1.58,-11 z"
                                        id="path124609"
                                        style="fill:none;stroke:#000000;stroke-opacity:1" />
                          <path
                                        d="m 197,544.03 c -6.68,2.58 -9.81,6.72 -9.95,13.97 -0.08,4.24 1.39,10.39 6.97,9.46 2.74,-0.46 4.91,-2.59 6.81,-4.46 1.33,-1.31 4.96,-4.81 5.61,-6.37 2.93,-7 -2.54,-12.82 -9.44,-12.6 z"
                                        id="path124607"
                                        style="fill:none;stroke:#000000;stroke-opacity:1" />
                          <path
                                        d="m 172,541.86 c -11.56,4.06 -7.44,18.06 -3.78,19.92 1.58,1.02 7.96,0.35 9.76,0 5.42,-1.65 8.2,-11.39 4.17,-16.47 -2.19,-2.77 -6.86,-3.47 -10.15,-3.45 z"
                                        id="path124605"
                                        style="fill:none;stroke:#000000;stroke-opacity:1" />
                          <path
                                        d="m 155.96,538.87 c -2.37,1.08 -4.51,1.99 -5.95,4.34 -3.22,5.24 -4.02,20.51 4,21.64 10.9,1.54 8.68,-10.29 8.06,-16.85 -0.43,-4.61 -0.12,-9.91 -6.11,-9.13 z"
                                        id="path124603"
                                        style="fill:none;stroke:#000000;stroke-opacity:1" />
                          <path
                                        d="m 227,540 c -6.04,7.51 -8.4,12.07 -7.98,22 0.4,9.56 9.96,5.56 12.13,2.72 2.99,-3.91 3.54,-12.01 5.43,-16.55 0,0 3.33,-5.09 3.33,-5.09 3.69,-6.27 6.35,-13.82 6.92,-21.08 0.33,-4.26 -1.37,-9.91 -6.66,-6.38 -3.07,2.04 -5.05,6 -6.17,9.38 0,0 -2.36,-7.92 -2.36,-7.92 -2.66,-5.6 -6.74,-3.87 -10.11,0 -6.04,7.01 -11.21,30.59 5.47,22.92 z"
                                        id="path124601"
                                        style="fill:none;stroke:#000000;stroke-opacity:1" />
                          <path
                                        d="m 265.33,481.04 c -3.53,3.04 -4.57,6.11 -7.02,9.96 -2.81,4.41 -7.19,9.8 -7.97,15 -0.95,6.37 3.6,13.7 10.49,9.15 5.02,-3.32 12.01,-18.15 12.15,-24.15 0.13,-5.36 -0.46,-12.07 -7.65,-9.96 z"
                                        id="path124599"
                                        style="fill:none;stroke:#000000;stroke-opacity:1" />
                          <path
                                        d="m 220,474 c 0,0 0,1 0,1 0,0 -1,-1 -1,-1 0,0 1,0 1,0 z"
                                        id="path124597"
                                        style="fill:none;stroke:#000000;stroke-opacity:1" />
                          <path
                                        d="m 221,473 c 0,0 0,1 0,1 0,0 -1,-1 -1,-1 0,0 1,0 1,0 z"
                                        id="path124595"
                                        style="fill:none;stroke:#000000;stroke-opacity:1" />
                          <path
                                        d="m 23,469.54 c -6.92,2.03 -13.18,6.75 -13.89,14.46 -0.54,5.78 1.44,9.76 7.89,8.46 5.86,-1.18 11.46,-5.75 13.36,-11.46 2.32,-6.94 0.98,-12.36 -7.36,-11.46 z"
                                        id="path124593"
                                        style="fill:none;stroke:#000000;stroke-opacity:1" />
                          <path
                                        d="m 226,467 c 0,0 0,1 0,1 0,0 -1,-1 -1,-1 0,0 1,0 1,0 z"
                                        id="path124591"
                                        style="fill:none;stroke:#000000;stroke-opacity:1" />
                          <path
                                        id="path124589"
                                        style="fill:none;stroke:#000000;stroke-opacity:1"
                                        d="m 55,424 c -6.431849,2.14395 -7.436833,2.47894 0,0 z"
                                        inkscape:connector-curvature="0" />
                          <path
                                        d="m 286,413 c -1.93,0.16 -3.18,0.11 -5,1.02 -8.35,4.2 -15.89,19.85 -16,28.98 -0.04,3.31 -0.45,9.07 1.74,11.68 1.11,1.33 2.53,1.96 4.26,1.74 5.81,-0.73 7.69,-9.81 9.16,-14.42 2.05,-6.42 1.34,-6.45 2.5,-12 1.36,-6.45 3.02,-10.11 3.34,-17 z"
                                        id="path124587"
                                        style="fill:none;stroke:#000000;stroke-opacity:1" />
                          <path
                                        d="m 11,429 c -9.93,-1.22 -10.91,12.83 -11,20 -0.06,5.12 -1.59,11.04 4,13 0,0 -2.99,6 -2.99,6 -1.75,5.13 1.33,10.06 6.99,8.14 9.04,-3.07 18.41,-18.27 6,-22.14 0.31,-2.2 3.22,-15.46 4.02,-16.7 1.68,-2.64 4.24,-2.27 6.41,-6.36 0,0 2.11,-5.94 2.11,-5.94 4.41,-12.33 3.5,-7.22 2.46,-20 0,0 3,1 3,1 1.55,-5.89 5.23,-16.01 3.69,-21.98 -1.44,-5.58 -8.93,-8.3 -14.05,-1.91 -6.07,7.56 -3.9,13.42 -4.61,21.72 -0.32,3.68 -2.46,5.26 -3.7,9.17 -1.49,4.71 -2.29,11.06 -2.33,16 z"
                                        id="path124585"
                                        style="fill:none;stroke:#000000;stroke-opacity:1" />
                          <path
                                        id="path124583"
                                        style="fill:none;stroke:#000000;stroke-opacity:1"
                                        d="m 346,361 c 1.12011,2.74845 -2.69922,-1.1405 0,0 z"
                                        inkscape:connector-curvature="0" />
                          <path
                                        id="path124581"
                                        style="fill:none;stroke:#000000;stroke-opacity:1"
                                        d="m 329.99,346.54 c -5.54882,14.91692 -29.89319,35.94564 -17.91094,50.90141 20.6404,-1.04121 28.36386,-39.76765 17.91094,-50.90141 z"
                                        inkscape:connector-curvature="0" />
                          <path
                                        id="path124579"
                                        style="fill:none;stroke:#000000;stroke-opacity:1"
                                        d="m 343,311 c -3.39543,14.66002 -8.6775,44.67713 1,51 -2.09662,12.455 7.73117,27.6501 9.02257,7.62379 3.31399,-11.11517 -3.23243,-16.94147 -3.55431,-23.98928 0.29448,-10.69815 2.35221,-22.45907 -2.54857,-32.22467 z"
                                        inkscape:connector-curvature="0" />
                          <path
                                        id="path124577"
                                        style="fill:none;stroke:#000000;stroke-opacity:1"
                                        d="M 48,277.77 C 24.497047,268.06558 31.289394,328.64619 41.203149,308.3532 42.703125,297.94688 47.480531,288.22078 48,277.77 Z"
                                        inkscape:connector-curvature="0" />
                          <path
                                        id="path124575"
                                        style="fill:none;stroke:#000000;stroke-opacity:1"
                                        d="m 25,225 c -20.3478607,6.45123 -5.318523,55.95641 6.500012,32.66088 C 28.492523,246.90338 28.524972,235.51499 25,225 Z"
                                        inkscape:connector-curvature="0" />
                          <path
                                        id="path124569"
                                        style="fill:none;stroke:#000000;stroke-opacity:1"
                                        d="m 78,130 c -18.087974,9.95833 -27.748474,33.71626 -14.930603,50.90764 -3.452909,16.53088 6.277208,18.24956 -3.843362,31.75617 7.008784,26.34757 -27.272879,32.7471 -18.619931,59.65178 12.992914,4.72145 11.84074,-31.50153 19.311302,-14.65918 -11.396514,20.83627 -2.887586,46.87628 -15.879585,68.88954 4.029097,13.84744 -9.45161,34.53987 -7.005479,54.23858 C 41.086798,386.48082 33.291513,405.39765 47,398 c -13.643973,8.62111 -9.726925,39.21131 0.732559,26.52887 -9.339138,10.05821 -0.110073,36.22335 9.158125,14.94209 -1.614095,-32.92939 1.998932,39.98128 14.710573,14.38345 1.743722,10.35659 -18.83239,29.75306 -17.149582,30.47454 -0.585526,-14.39529 -20.039386,-23.24218 -14.63549,-3.05684 0.654589,16.28297 17.963649,-0.29878 9.413326,13.99698 0.643893,18.7482 17.472828,8.2405 14.332034,-4.96006 5.881862,-20.93303 15.604376,-8.88164 9.836798,6.26711 -8.975633,13.28365 -28.484493,39.28619 -10.605639,58.9217 -4.824875,10.95397 -13.699131,35.24497 4.635608,40.11642 8.316854,-18.13817 5.681429,-42.98746 17.60908,-60.97501 -2.391378,-11.37482 26.186328,-21.30717 5.763978,-10.36668 -10.246853,14.50269 9.072671,23.53128 17.43309,17.96466 3.25895,18.88634 18.62804,13.38715 15.37815,-3.64669 -3.58194,-10.40517 9.63512,1.73812 15.04146,-3.70475 24.17644,4.30684 6.29484,-30.29721 8.62436,-27.74207 20.6804,7.73744 34.44739,-18.16604 55.81017,-20.10503 6.49001,-7.65104 -2.38424,-17.78468 11.39306,-9.55273 6.86908,-8.58715 -6.81656,20.46873 -13.215,19.66051 -13.75673,-10.83176 -24.56161,18.95583 -37.83677,18.15838 -8.13454,27.46077 30.68257,8.37777 36.03094,-6.05806 9.94645,-11.86382 34.55158,-9.3353 25.44399,-32.67166 -2.26606,-18.03463 33.69047,13.91347 31.61799,-18.49629 -4.89671,-18.02443 7.036,-34.31716 9.33731,-49.36364 17.76599,0.60905 13.55358,-28.33995 31.20063,-27.9208 9.46275,-9.62618 4.3629,-27.96342 -0.5319,-31.95739 22.48483,19.79656 22.47088,-28.13376 28.17347,-35.50386 10.49782,-11.17462 24.33778,-0.26224 27.0735,-20.03559 1.95689,-10.49918 21.18475,-41.5518 4.85613,-42.41184 -9.38369,14.62139 -16.82973,29.55543 -30.1726,37.95267 -9.90857,18.31191 -19.91193,41.25741 -40.52247,48.22844 -14.23515,16.20979 -31.7984,31.86169 -50.95136,38.5254 -16.60872,6.81194 -38.14024,3.04466 -51.90048,8.27642 0.53252,17.62155 15.78743,-7.92326 7.81745,9.49271 C 182.17505,400.50297 182.35645,368.59295 176,384 161.35043,368.50438 132.13228,366.86237 116.17401,347.3117 103.77805,327.92398 85.713369,309.16548 85.394501,284.65836 79.107685,273.28869 71.710244,244.59169 68.658267,223.522 70.62702,202.88111 68.462806,176.67909 72.614935,160.45636 73.609357,150.22682 78.891031,140.18106 78,130 Z"
                                        inkscape:connector-curvature="0" />
                          <path
                                        d="m 456,136 c -13.82,9.34 -15.79,13.77 -20.64,29 -2.19,6.87 -1.76,14.62 6.64,16 0,0 -1.57,3.18 -1.57,3.18 0,0 0,19.55 0,19.55 0,0 3.57,3.27 3.57,3.27 -5.39,2.54 -4.54,4.6 -5.89,10 -1.94,7.76 -4.17,12.84 0.89,20 -4.16,2.5 -3.88,4.46 -4,9 -3.21,-1.67 -7.62,-1.55 -10.16,1.43 -1.58,1.86 -2.55,6.16 -3.35,8.57 -1.82,5.46 -5.74,16.25 -4.18,21.89 1.09,3.91 4.51,4.27 7.36,1.78 2.86,-2.5 4.72,-7.02 5.51,-10.67 0.86,-3.94 0.81,-6.06 0.82,-10 0,0 3,4 3,4 3.67,-1.19 4.67,-2.35 8,0 -2.09,-0.2 -3.65,-0.54 -5.43,1.02 -2.93,2.56 -4.56,15.94 -4.57,19.98 -0.01,4.71 -1.28,10.14 3,13 0,0 -1,4 -1,4 0,0 -4,0 -4,0 0,0 -3.72,19 -3.72,19 0,0 -5.28,19 -5.28,19 0,0 6,0 6,0 0,0 -5,1 -5,1 -0.9,19.94 -7,26.39 -7,49 0,0 4,0 4,0 0,0 -3,1 -3,1 0,7.42 -3.06,18.04 5,15.81 1.42,-0.39 2.7,-1.15 4,-1.81 0,0 -4.98,4.54 -4.98,4.54 -1.08,1.57 -1.27,5.42 -1.63,7.46 -1.32,7.38 -3.57,12.47 -2.39,20 6.02,-0.99 7.85,-4.76 12,-9 0,0 -3,5 -3,5 0,0 2,0 2,0 -4.16,5.46 -7.72,12.11 -4.35,18.94 3.6,7.31 11.54,1.64 13.14,-3.03 0.37,-2.01 0.21,-7.55 0,-9.91 2.24,7.14 0.12,20.64 1.95,24.89 1.86,4.32 6.52,4.62 9.25,0.88 1.92,-2.62 1.93,-5.68 1.9,-8.77 2.36,5.85 2.18,6.23 0,12 -0.77,1.68 -1.16,3.09 -2.45,4.46 -2.11,2.24 -3.85,1.57 -7.19,6.56 -3.33,4.95 -2.92,6.42 -4.85,10.89 0,0 -3.4,6.09 -3.4,6.09 -0.5,-12.09 1.23,-11.4 -7,-21 0,0 -6,0 -6,0 -0.47,8.01 -1.61,28.12 12,21 -0.8,2.99 -3.02,10.26 -2.17,12.98 1.6,5.15 7.76,7.2 11.32,2.63 2.47,-3.19 1.35,-7.17 2.08,-10.61 1.04,-4.82 5.14,-9.47 6.77,-21 2.31,4.85 2.35,7.03 8,8 -6.59,5.8 -5.37,11.25 -3,19 -5.43,1.59 -11.41,7.01 -12.23,12.83 -0.58,1.94 -0.07,4.23 0,6.17 -8.78,2.01 -9.71,19.32 -5.84,25.99 2.01,3.45 5.22,4.93 6.47,8.1 0.8,2.03 0.6,6.59 0.6,8.91 -9.84,1.67 -7.35,9.96 -7.04,17 0.24,5.51 -0.29,10.21 3.68,14.77 2.34,2.71 7.76,4.75 10.06,0.92 0.79,-1.32 0.96,-4.13 1.09,-5.69 0,0 0.79,-10 0.79,-10 0.72,-5.51 0.79,-7.89 -1.58,-13 7.84,-3.93 8.98,-13.06 9,-21 0,0 -6,0 -6,0 2.29,-0.7 6.69,-1.38 8.3,-2.82 2.96,-2.65 4.92,-14.04 5.7,-18.18 1.78,6.27 0.35,12.93 1.6,15.87 1.7,3.71 9.4,8.37 14.4,0 0,0 8.26,6.69 8.26,6.69 0,0 2.74,11.44 2.74,11.44 9.08,-5.08 10,-13.75 10,-23 4.28,2.82 4.97,2.87 10,3 0,0 0,-4 0,-4 2.94,2.07 6.07,3.96 9.81,2.4 4.65,-1.94 9.08,-16.66 7.76,-21.35 -1.53,-5.42 -5.26,-2.95 -8.57,-8.05 4.66,2.26 6.84,3.22 12,2 4.63,5.07 15.95,-3.93 17,-13 7.07,3.71 16.32,0.61 17,-7.98 4.4,6.09 7.31,5.07 12.27,0 1.38,-1.4 3.41,-3.35 3.93,-5.19 1.18,-2.53 0.41,-5.32 0,-7.83 5,3.66 6.05,3.15 11.8,1 -5.1,7.18 -11.56,15.45 -14,24 -1.3,-2.22 -2.54,-4.73 -5.05,-5.81 -8.04,-3.44 -20.01,11.24 -21.95,17.81 -14.35,-9.45 -16.72,12.42 -14.26,17.85 2.3,5.1 8.04,2.34 10.61,-0.96 1.51,-1.93 1.98,-3.61 2.65,-5.89 7.85,4.11 11.49,0.42 17.08,-4.95 2.12,-2.03 4.25,-3.71 5.96,-6.14 1.65,-2.36 3,-6.39 5.35,-7.89 3.7,-2.36 13.19,1.13 18.2,-7.11 4,-6.58 8.26,-20.84 -1.59,-23.91 0,0 7,-6 7,-6 2.79,3.95 4.37,3.77 9,4 -1.5,8.69 5.33,6.38 10,3.06 8.56,-6.09 9.99,-10.07 10,-20.06 0.01,-3.58 1.2,-9.8 -3,-11 6.22,-10.2 10.89,-20.82 11,-33 0,0 -4,0 -4,0 0,0 5,-2 5,-2 3.33,3.53 7.06,-0.24 9.56,-3.04 5.79,-6.47 9.24,-13.24 9.44,-21.96 6.78,6.82 10.08,0.2 13.69,-6 3.08,-5.28 6.7,-11.63 4.75,-18 0,0 -4.44,-9 -4.44,-9 1.54,2.03 4,6.3 6.95,5.97 3.27,-0.36 6.83,-7.27 8.27,-9.97 5.33,-10.05 12.11,-21.14 4.78,-32 7.89,2.63 11.79,-3.29 16,-9 6.19,10.19 12.25,1.12 14.82,-6 0,0 12.9,-36 12.9,-36 0,0 0.99,-6 0.99,-6 0.33,-2.79 0.54,-10.2 -4.43,-8.38 -3.33,1.23 -9.6,12.93 -11.56,16.38 -3.22,5.66 -6.01,9.35 -6.72,16 -1.92,-0.68 -3.9,-1.53 -6,-1.27 -7.02,0.86 -11.2,13.59 -13.89,19.27 -2.47,5.23 -5.18,6.97 -4.11,13 0,0 -15.94,13.85 -15.94,13.85 -2.12,2.04 -4.57,3.61 -2.06,6.15 -7.9,2.55 -10.3,1.18 -15,10 0,0 3,-1 3,-1 -2.49,1.47 -2.39,1.24 -5,0 0,0 -6,7 -6,7 0,0 3,2.06 3,2.06 -1.6,-0.26 -2.15,-0.68 -3.87,0 -1.93,0.91 -7.41,6.96 -8.11,8.99 -0.84,2.4 0.08,4.08 -1.66,6.49 -2.2,3.05 -6.06,4.52 -8.95,6.73 -2.12,1.63 -2.96,3.68 -4.68,5.7 -5.33,6.27 -9.48,6.94 -5.73,16.03 -8,2.55 -11.52,7.73 -12,15.97 -1.75,-0.31 -2.91,-0.77 -4.73,0 -4.96,1.96 -6.25,14.62 -8.36,19.03 -2.18,4.56 -8.14,7.31 -10.38,9.76 -2,2.19 -2.07,4.6 -3.61,7.07 -2.96,4.75 -4.65,3.49 -6.92,11.17 0,0 -1,-3 -1,-3 -4.32,0 -6.35,-0.61 -10,2 -4.31,-9.97 -10.25,-6.03 -19,-6 -1.02,-8.69 -5.71,-7 -13,-7 0,0 -7,15 -7,15 0,0 9,1 9,1 -4.23,1.2 -7.3,2.03 -10,-2 -9.31,0.39 -9.47,-2.88 -17,-5 0,0 5.75,-14 5.75,-14 -0.06,-2.34 -3.17,-6.8 -4.44,-8.98 -1.56,-2.68 -3.41,-6.04 -7.11,-5.54 -4.08,0.55 -4.34,7.32 -8.3,7.32 -3.98,0 -5.04,-5.6 -10.9,-6.8 -1.35,-3.44 -5.76,-10.93 -9.21,-12.4 -1.59,-0.68 -4.06,-0.58 -5.79,-0.6 1.67,-0.58 4.94,-1.37 6.01,-2.73 1.81,-2.32 0.32,-5.92 -0.6,-8.27 -1.99,-5.06 -2.57,-7.5 -2.36,-13 0.08,-2.43 0.82,-5.67 0,-7.91 -1.25,-3.45 -4.95,-4.75 -7.67,-9.09 -1.76,-2.8 -1.46,-4.35 -2.66,-7.09 -4.03,-9.17 -4.38,-4.11 -6.72,-16.91 0,0 -11,-1 -11,-1 0,0 11,0 11,0 0,0 1.91,-15 1.91,-15 0,0 0,-8.17 0,-8.17 0,0 1.09,-17.83 1.09,-17.83 0,0 -9,0 -9,0 0,0 8,-1 8,-1 0,-4.98 1.14,-7.93 -4,-10 0,0 1,-4 1,-4 0,0 2,4 2,4 0,0 8,-2 8,-2 -1.01,-5.42 -2.04,-9.96 -8,-11 0,0 5,-1 5,-1 0,0 -4.47,-15 -4.47,-15 0,0 -5.99,-11 -5.99,-11 0,0 -0.87,-12 -0.87,-12 0,0 -1.67,-13 -1.67,-13 -1.95,-3.55 -3.16,-12.87 -2.91,-17 0.23,-3.76 3.31,-10.06 0.91,-13 2.83,-5.6 0.83,-4.94 1.46,-10 0.76,-6.03 5.92,-16.63 -2.46,-20 0,0 1,-6 1,-6 0,0 2,2 2,2 0,0 1,0 1,0 0,0 4.16,-20 4.16,-20 1.42,-5.19 3.95,-8.62 1.84,-14 z"
                                        id="path124519"
                                        style="fill:none;stroke:#000000;stroke-opacity:1" />
                          <path
                                        d="m 697,54 c -1.22,-1.27 -2.22,-2.61 -4.03,-3.12 -2.6,-0.72 -4.18,0.96 -1.97,3.12 -7.98,0.37 -13,-8.46 -16,4 0,0 0,-5 0,-5 0,0 -8,-2 -8,-2 -2.14,7.49 -3.59,12.71 -12,13 0,0 2,-8 2,-8 0,0 -10,9 -10,9 0,0 2,-8.17 2,-8.17 0,0 -8.83,0 -8.83,0 0,0 -7.18,1.72 -7.18,1.72 0,0 -8.99,-3.55 -8.99,-3.55 0,0 -1,3 -1,3 0,0 -5,-1 -5,-1 0,0 -1,4 -1,4 0,0 -6,-1 -6,-1 0,0 2,-7 2,-7 -1.77,0.02 -4.84,-0.18 -6.26,0.99 -4.37,3.59 1.29,5.76 4.26,6.01 0,0 -1,4 -1,4 -2.63,-2.43 -2.87,-2.96 -6,-1 0,0 -1.71,-3.55 -1.71,-3.55 0,0 -14.29,-7.45 -14.29,-7.45 0,0 -2,7 -2,7 0,0 -5,-4 -5,-4 0,0 -1,4 -1,4 -2.68,-1.74 -4.37,-3.6 -6,0 -2.7,-3.78 -3.53,-3.93 -8,-5 0,0 -1,6 -1,6 -3.32,-3.55 -4.23,-4.09 -9,-5 0,0 -1,5 -1,5 0,0 -6,-2.5 -6,-2.5 0,0 -25,1.5 -25,1.5 0,0 1,-4 1,-4 0,0 -15,-4 -15,-4 -6.59,3.41 -12.01,-6 -18.94,-4.48 -4.57,1.03 -6.18,11.64 0,15.48 -5.99,3.54 -16.15,16.32 -5.06,20 -9.21,3.48 -6.14,8.66 -8.19,16.42 0,0 -2.19,5.58 -2.19,5.58 0,0 -2.68,9.91 -2.68,9.91 -2.15,6.27 -4.55,12.54 -5.81,19.09 -1.28,6.67 -5.41,13.9 3.87,16 -6.18,2.76 -8.25,4.26 -10,11 0,0 6,1 6,1 0,0 -6.31,1 -6.31,1 -1.49,10.05 0.23,7.37 0,14 -0.48,4.33 -1.94,16.89 0,20.57 0.95,2.16 10.63,5.94 13.02,5.81 1.86,-0.1 2.22,-1.31 2.29,-1.38 2.84,8.77 4.86,7.33 14,10 0,0 1,-7 1,-7 0,0 6,0 6,0 -2.25,8.03 0.31,9.62 8,10 0.01,2.03 -0.26,5.65 0.99,7.3 0.71,0.94 1.93,1.55 3.04,1.84 4.27,1.11 4.89,-1.92 5.97,-5.14 0,0 6,2 6,2 0.7,4 1,4.3 5,5 0,0 1,-9 1,-9 0,0 5,3 5,3 0,0 0,7 0,7 1.29,-0.23 2.29,-0.16 3.44,-1.02 2.92,-2.18 5.01,-12.48 4.56,-15.98 0,0 11,3 11,3 0,0 -5,13 -5,13 6.57,1.1 8.21,1.01 10,-9 2.94,0.92 6.34,2.91 8.91,3.21 2.72,0.31 1.7,-0.56 6.18,0.61 7.21,1.89 10.73,5.22 15.91,-0.82 3.52,3.42 11.15,5.63 16,7 0,0 1,-6 1,-6 5.39,2.71 10.99,3.85 17,4 0,0 0,-4 0,-4 3,4.72 4.77,6 10,8 0,0 -1,7 -1,7 0,0 4,0 4,0 -2.11,6.54 -2.43,13.65 7,12 0,0 -1,5 -1,5 4.13,0.97 5.31,1.57 8,-2 0,0 9,5 9,5 0,0 2,-3 2,-3 3.45,5.83 9.67,8.28 16,10 0,0 3,-5 3,-5 7.75,7.48 9.15,4.15 14,5.81 4.35,1.49 12.14,6.68 16.94,6.49 2.6,-0.11 8.77,-7.71 9.19,-10.13 0.29,-1.67 -0.46,-2.07 -1.13,-3.17 3.84,-2.57 3.14,-4.92 2,-9 5.62,0.55 8.01,-0.1 9,-6 0,0 3,0 3,0 1.01,-6.96 7.23,-10.85 4.74,-15.59 -0.68,-1.28 -3.51,-3.27 -4.74,-4.41 6.22,-1.08 8.63,-7.46 10.08,-13 0.93,-3.12 2.43,-5.52 0,-8 0,0 0.92,-5 0.92,-5 0,0 -7,0 -7,0 0,0 9,0 9,0 0,0 1,-5 1,-5 0,0 -8,0 -8,0 0,0 8,-1 8,-1 -0.45,-3.31 -0.37,-5.74 -3,-8 8.11,-8.03 7.9,-21.78 9.84,-26 2.66,-5.77 7.78,-8.48 8.98,-10.41 1.24,-2 2.42,-11.16 2.18,-13.59 2.16,-1.46 2.89,-2.31 3.45,-5.01 1.42,-6.81 -5.39,-7.71 -10.45,-7.99 2.69,-2.61 4.05,-3.48 2,-7 3.43,-3.45 9.37,-12.97 8.58,-18 -0.78,-4.98 -8.13,-9.71 -12.58,-11 3.55,-6.9 11.37,-12.92 -1,-16 3.58,-9.29 -7.51,-11.23 -14,-12.92 -1.94,-0.51 -5.59,-2.12 -7.4,-0.96 -1.57,1.01 -1.47,3.27 -1.6,4.88 -3.11,-4.65 -5.71,-5.5 -11,-7 0,0 -2,6 -2,6 -4.83,-4.34 -7.42,-4.65 -11,1 0,0 -4,-4 -4,-4 0,0 1,-8 1,-8 -5.78,1.31 -5.73,3.52 -6,9 z"
                                        id="path124515"
                                        style="fill:none;stroke:#000000;stroke-opacity:1" />
                          <g
                                        id="RSS1">
                                       <path
                                                     style="fill:none;stroke:#000000;stroke-opacity:1"
                                                     id="path124475"
                                                     d="m 460,227 c -3.71,3.03 -3.25,4.56 -2,9 -4.06,3.71 -0.33,8.58 4,10 0,0 -4,1 -4,1 -2.63,14.68 0.96,14.26 1.75,21 0.38,3.51 -0.99,4.38 0,9 0,0 2.51,7.28 2.51,7.28 0.97,3 2.64,11.54 2.74,14.72 -12.3,-2.8 -4.35,12.19 -4.99,20.58 -0.38,5.15 -3.33,9.71 0,14.42 -3.69,6.94 -3.01,15.35 -3.01,23 0,0 7,0 7,0 0,0 -6,1 -6,1 1.08,5.32 3.07,9.4 8,12 -2.26,6.92 4.3,12.92 10,16 0,0 -2.67,5 -2.67,5 0,0 1.98,13.71 1.98,13.71 0,0 2.69,2.29 2.69,2.29 -1.73,7.29 0.57,18.39 9,20 2.44,5.17 9.92,14.52 13.86,4.98 0.66,-1.61 0.87,-3.28 1.14,-4.98 11.86,4.91 8.1,11.64 16.42,16.91 2.52,1.59 5.7,1.85 8.58,2.09 -6.5,1.53 -8.41,-1.45 -11.72,0.83 -2.87,2.15 -4.76,8.75 0,12.52 2.94,2.51 7.89,3.13 11.72,3.65 5.47,-8.94 6.46,-8.48 7,-19 0,0 1,4 1,4 3.89,0.51 8.13,2.19 11,-1 4.64,9.75 7.7,9.4 18,6 2.78,8.04 10.91,9.35 16.87,3.77 3.81,-3.56 4.86,-7.78 5.13,-12.77 12.78,-1.78 12.08,-9.64 14.18,-15 2.2,-5.6 3.83,-7.67 4.82,-14 6.91,-0.55 9.28,-5.62 10,-12 0,0 8,-3 8,-3 0,0 -2,-9 -2,-9 8.9,-4.04 9.54,-8.77 13.39,-12.39 0,0 10.61,-7.61 10.61,-7.61 -0.71,-3.68 -0.77,-4.9 -4,-7 3.35,-2.02 4.2,-2.07 5,-6 9.06,-1.95 3.13,-4.08 14,-10 0,0 -1,-3 -1,-3 4.52,0.08 6.08,-0.33 7,-5 6.7,-2.02 5.12,-4.18 8.69,-8.79 1.74,-2.25 3.77,-3.14 5.14,-5.42 1.29,-2.15 0.91,-3.85 2.76,-6.37 4.06,-5.51 7.62,-5.27 5.41,-13.42 0,0 4.57,-1.74 4.57,-1.74 0,0 6.53,-11.26 6.53,-11.26 0,0 0,-3 0,-3 6.35,-2.18 5.36,-6.27 7.52,-11.41 1.02,-2.41 3.15,-5.3 1.37,-7.94 -1.46,-2.18 -5.65,-2.99 -7.99,-3.89 -5.74,-2.21 -5.09,-3.96 -12,-4.76 0,0 0,5 0,5 -2.49,-5.28 -8.83,-11.31 -13,-4 0,0 -9,-4.36 -9,-4.36 0,0 -6,-3.58 -6,-3.58 0,0 -5,-1.42 -5,-1.42 -4.47,-1.41 -6.12,-3.6 -9,1.36 -4.06,-1.87 -4.64,-2.13 -9,-1 0,0 2,-5 2,-5 0,0 -5,0 -5,0 0,0 -3,-5 -3,-5 1.85,-4.46 3.17,-6.91 -2,-9 2.16,-9.24 -3.39,-10.02 -11,-10.64 -2.82,-0.23 -3.78,-1.35 -6,0.64 -3.22,-2.8 -3.8,-2.75 -8,-3 0,0 -1,5 -1,5 -4.92,-2.68 -6.46,-3.52 -12,-2 -2.21,-5.32 -5.83,-1.58 -10.09,-2.16 0,0 -13.91,-3.84 -13.91,-3.84 0,0 -1,3 -1,3 0,0 -9,-6 -9,-6 -5,9.8 -1.76,10.34 -12,10 0,0 0,7 0,7 0,0 -1,-7 -1,-7 0,0 -5,0 -5,0 7.49,-2.23 7.36,-0.56 12,-13 0,0 -9,-4 -9,-4 -3.49,8.78 -4.32,11.68 -5,21 0,0 -5.01,-5.41 -5.01,-5.41 0,0 -2.57,-4.59 -2.57,-4.59 0,0 -2.42,-1 -2.42,-1 0,0 -1,7 -1,7 -4,-0.88 -4.69,-1.04 -6,-5 0,0 -5,-2 -5,-2 0,0 -2,6 -2,6 0,0 -8,-2 -8,-2 0,0 0,8 0,8 -1.7,-6 -0.43,-12.28 -1.57,-14.79 -1.06,-1.9 -5.62,-4.07 -7.43,0 0,0 0,-11.21 0,-11.21 0,0 -5,0 -5,0 0,0 -1,7 -1,7 -6.22,-3.84 -8.85,-3.22 -11.74,-4.94 0,0 -3.69,-3.2 -3.69,-3.2 -1.89,-1.46 -9.13,-4.6 -11.43,-4.34 -2.84,0.34 -3.22,3.2 -4.01,5.48 -2.18,9.75 0.23,7.85 0,14 -0.48,3.5 -2.05,5.33 0.87,8 z" />
                          </g>
                          <g
                                        id="X35S">
                                       <path
                                                     sodipodi:nodetypes="cccccccccccccccccccccccccccccccccccccccccccccccccccccccccc"
                                                     inkscape:connector-curvature="0"
                                                     d="m 872,51 c 1.1154,13.212218 1.63303,16.967204 -6.77158,27.999512 6.32514,8.968716 -7.17794,24.259438 -7.14186,37.631578 -4.51645,9.83497 -7.29611,20.88778 -8.68719,31.6125 10.72869,4.50714 -10.32555,16.03067 0.29837,16.97345 -12.85815,9.28194 -0.37539,37.16982 -6.90399,51.84405 0.80709,11.87264 -3.08529,28.52802 0.64465,33.57931 -7.44593,7.17467 7.3293,39.53463 -5.96778,16.84366 -4.41176,-17.87752 -7.93761,-42.75543 -6.04781,-63.09043 C 832.65084,195.54312 836.12263,187.02019 834,178 c -10.2873,0.0604 3.07194,-6.42829 1.66286,-12.74481 C 837.36862,157.15407 839.1954,149.07947 841,141 c -20.37601,3.64296 -27.91915,43.65731 -14.85375,43.595 -8.44822,10.39095 3.72762,26.42323 0.79875,26.5075 -14.53837,13.44868 4.67479,42.28439 -17.245,39.6375 -9.18685,8.53383 -12.13652,50.55731 3.62672,25.43031 3.31232,-13.21334 -0.33938,-11.81037 9.61792,-11.02455 C 824.56592,263.72499 807.5671,291.76712 819,301 c -7.77777,8.34544 -9.87387,27.05791 -12.78828,40.59656 6.11959,6.03469 -13.97364,40.26993 -4.57128,51.40344 -1.83871,-0.75907 -6.1546,25.15542 7.35956,15 -10.93637,7.57309 -13.54756,46.52377 3,23 -10.54452,8.60223 -5.57047,40.14263 7.54859,20.64391 2.28232,-31.19956 -2.50937,39.51487 13.13641,11.91734 4.82632,-11.73125 3.11495,20.04232 -5.59,14.4475 -8.63026,7.74442 -25.78364,45.92188 -3.48957,35.89213 1.91138,-13.52294 9.89497,-40.43911 14.40232,-20.71496 -1.77745,12.66366 -2.34599,17.84057 -11.80629,26.53986 -9.17871,15.62268 -11.7748,32.38627 0.12387,48.4834 -9.25384,4.96993 -13.92983,40.79283 5.98686,36.98082 6.07273,-11.74705 -3.4359,-27.42312 6.97551,-35.46803 9.46771,-9.3998 -5.99856,-17.08002 1.1173,-15.85447 11.56672,-5.30012 6.06045,-29.52201 23.595,-22.8675 -24.30396,-4.35092 -9.12747,39.18032 2,17 13.61398,17.86302 11.36309,-8.73296 12.02568,-18.26263 8.66332,-10.84545 -9.49049,-9.92925 4.39432,-11.75737 5.27268,-13.44585 0.36135,-18.44692 12.14594,-26.15172 0.19024,-14.09051 -2.5325,-29.5893 4.8739,-42.37875 C 898.70589,444.81063 921.11758,429.0801 906,428 c 17.86741,-6.18187 4.88754,-29.95984 16,-35 -3.99909,-13.72017 -7.12187,-8.63513 -2.34682,-22.09247 4.49279,-6.42639 7.0441,-12.53642 11.50682,-17.22775 4.94339,-16.18456 -9.22445,-23.90832 1.81323,-37.79123 4.74656,-19.84529 5.692,-41.94812 19.13443,-56.86261 9.26301,-18.24401 16.76719,-35.5456 25.41187,-52.18235 2.64624,-10.02663 6.25268,-24.49348 7.57413,-37.1097 8.0666,-9.20637 4.00817,-30.88549 11.44811,-27.93783 C 1004.6162,126.70203 1008.2749,110.00794 1014,94 c -12.2027,3.281338 12.4446,-10.517044 1.9806,-18.451586 9.0723,-10.231538 -0.2041,-18.546818 -8.621,-13.986812 -3.032,-1.897308 -12.63979,8.535655 -11.27152,-1.369869 C 996.96582,49.425086 980.81955,65.354268 995,64 c -2.77935,9.287986 -10.84398,-4.022862 -18.20414,-5.473184 -6.24605,-3.840668 -7.95797,3.856323 -12.43626,3.034786 -7.34092,1.00918 -6.4581,-0.472675 -14.57664,-2.259346 C 949.40308,68.973913 923.38953,46.850769 925,63 c -44.67452,-12.944165 12.21906,-7.711339 -31,-8 -7.79606,3.401325 -13.7803,-8.06179 -22,-4 z"
                                                     style="fill:none;stroke:#000000;stroke-opacity:1"
                                                     id="path124421" />
                          </g>
                          <path
                                        d="m 1080,58 c 0,0 0,1 0,1 0,0 -1,-1 -1,-1 0,0 1,0 1,0 z"
                                        id="path124383"
                                        style="fill:none;stroke:#000000;stroke-opacity:1" />
                          <g
                                        id="polyA">
                                       <path
                                                     inkscape:connector-curvature="0"
                                                     d="M 1081,58 C 1071.4547,49.869618 1076.4763,63.106135 1063.2768,55.356348 1060.6828,68.034229 1055.3502,48.629271 1048.9905,61.568123 1044.7478,67.424275 1044.6397,78.050772 1039.6977,81.782957 1029.9882,81.468512 1040.7423,68.219457 1040.4404,61.958664 1039.7941,58.852833 1028.8531,86.245711 1030.553,68.952649 1039.5784,52.937549 1009.5789,65.053974 1018.3725,78.80375 1022.4115,93.640264 1003.6936,107.26939 1007,124 995.64463,135.83486 994.64571,153.07595 986.32142,167.11414 983.58862,183.89074 986.29102,184.45373 979.76006,201.05539 974.38779,208.89729 976.50456,224.59346 968.79098,225.86817 964.08812,238.8233 957.83329,253.31987 950.34792,262.59965 944.10613,273.41213 938.83857,284.07714 937.13609,296.7425 945.88313,311.82717 943.30421,301.86836 936.78072,305.63132 937.74451,319.60964 922.08171,327.12564 932.68917,340.31157 927.57903,349.32258 936.66255,358.12029 932.98813,355.87172 925.35826,362.7387 921.42831,368.49658 918.49,378.96 928.39928,388.43905 914.33187,404.52825 921.69774,408.21704 914.64408,410.84912 905.47648,436.30814 921.61454,433.62984 925.03784,435.27043 906.15924,429.73202 905.1414,441.78791 892.46748,451.31663 923.07882,449.84226 901.69767,450.16875 890.86722,457.7611 891.58939,499.80159 905.00001,484.32022 898.19432,500.40692 930.91351,487.03627 914.81958,495.2918 904.47854,491.23846 899.76532,510.85227 903.82392,494.30797 893.02481,477.99959 884.20869,514.89357 882.22923,522.68969 877.29103,536.11593 879.88047,549.96528 876.24001,564 863.24232,540.10274 855.44567,597.81027 875.16048,575.51578 872.53447,560.1678 882.69253,571.41441 886.57638,554.77432 882.20998,538.30106 896.976,554.62704 898,543 917.19723,558.81888 915.0896,513.07947 909.14344,518.35734 922.07099,526.104 932.45208,512.37261 937.73244,507.07457 951.41028,510.36451 948.63725,494.19704 958.96,501.97 972.50572,498.44524 963.16232,480.65794 976.43047,487.26547 981.83717,482.47782 964.63737,516.50112 963.84125,506.6975 947.28504,496.15753 942.61049,527.78936 927.65016,522.07998 915.20785,540.11659 933.67203,547.2376 940.8507,534.10529 959.5682,534.84922 962.3236,507.50552 982.26488,509.53928 996.59776,501.19751 980.98558,482.08106 987.67925,480.86792 994.66119,470.53249 1002.5794,498.8756 1013.3009,480.52281 1025.7503,465.17758 1011.4731,448.31157 1025.1481,433.16689 1030.0879,421.3436 1017.4772,416.88979 1033.0913,418.85375 1047.0538,413.89905 1041.8665,389.50182 1053.1518,395.53008 1064.19,387.85655 1070.3977,371.33228 1061,360 1077.7022,378.04324 1086.2067,328.52235 1083.9618,324.39195 1096.2001,323.8589 1094.5261,307.08324 1102.8314,319.68766 1117.0607,305.80533 1123.195,281.85143 1125.54,262.005 1118.4818,252.71186 1112.0734,273.63759 1107.4198,279.06656 1104.7026,294.08588 1085.2177,289.49912 1083.27,309 1080.8509,320.7136 1073.4715,327.84209 1063.9111,334.82557 1061.4551,340.21345 1051.5425,348.14809 1057.4681,337.38333 1063.7863,328.75134 1072.2905,318.9141 1073.2352,309.5338 1082.2704,305.21822 1082.2529,292.63396 1089.2116,286.89563 1098.5033,265.59695 1103.1348,254.13532 1117.7675,238.47625 1126.1372,229.19303 1108.4031,225.15893 1121.8288,220.1725 1133.4131,211.50994 1119.6607,194.6075 1123.9607,199 1139.2565,196.67561 1113.2516,192.18016 1126.2401,193.34499 1126.9034,186.21085 1133.0815,171.55555 1135.4,159.42 1141.5149,151.04961 1162.3618,124.57339 1140,122 1145.1251,111.64271 1159.7491,91.417587 1138,86 1152.2522,72.383805 1128.7651,50.879171 1114.26,58.335 1112.3713,57.337516 1099.9388,52.858969 1101.4096,60.81916 1096.705,52.631978 1081.3423,66.050182 1088,50 1082.4795,47.888051 1080.5049,53.895111 1081,58 Z"
                                                     style="fill:none;stroke:#000000;stroke-opacity:1"
                                                     id="Selection #12" />
                          </g>
                          <g
                                        id="textg93_LGD"
                                        style="fill:#000000;fill-opacity:1">
                                       <path
                                                     d="M 560.42347,43.601763 V 19.686184 H 563.09342 V 21.932848 Q 564.03767,20.614154 565.22612,19.962947 566.41458,19.29546 568.10771,19.29546 570.32182,19.29546 572.01496,20.435072 573.70809,21.574684 574.57094,23.658547 575.43379,25.726129 575.43379,28.200716 575.43379,30.854385 574.47326,32.987088 573.52901,35.103511 571.70563,36.243123 569.89853,37.366455 567.89607,37.366455 566.43086,37.366455 565.25868,36.747808 564.10279,36.129162 563.3539,35.184912 V 43.601763 Z M 563.07714,28.428638 Q 563.07714,31.766075 564.42839,33.361532 565.77965,34.956989 567.70071,34.956989 569.65433,34.956989 571.03815,33.312691 572.43824,31.652113 572.43824,28.184436 572.43824,24.87956 571.07071,23.235262 569.71945,21.590964 567.83095,21.590964 565.95873,21.590964 564.50979,23.349223 563.07714,25.091202 563.07714,28.428638 Z"
                                                     style="font-style:normal;font-variant:normal;font-weight:normal;font-stretch:normal;font-size:33.34180069px;line-height:1.25;font-family:Arial;-inkscape-font-specification:'Arial Normal';font-variant-ligatures:normal;font-variant-caps:normal;font-variant-numeric:normal;stroke-width:3.12579012;fill:#000000;fill-opacity:1"
                                                     id="path124896"
                                                     inkscape:connector-curvature="0" />
                                       <path
                                                     d="M 579.40616,36.975731 V 13.108993 H 589.98827 Q 593.17918,13.108993 594.83976,13.7602 596.50034,14.395127 597.49343,16.023144 598.48652,17.651162 598.48652,19.621063 598.48652,22.160771 596.84222,23.902749 595.19793,25.644728 591.76281,26.116853 593.01638,26.71922 593.66759,27.305306 595.05141,28.57516 596.2887,30.479941 L 600.44014,36.975731 H 596.46778 L 593.30943,32.010277 Q 591.92561,29.861294 591.0302,28.721682 590.13479,27.582069 589.41846,27.126224 588.71842,26.670379 587.98581,26.491297 587.44856,26.377336 586.22755,26.377336 H 582.56451 V 36.975731 Z M 582.56451,23.642267 H 589.35334 Q 591.51861,23.642267 592.73962,23.202702 593.96063,22.746857 594.59556,21.770046 595.23049,20.776956 595.23049,19.621063 595.23049,17.927925 593.99319,16.837153 592.77218,15.746381 590.11851,15.746381 H 582.56451 Z"
                                                     style="font-style:normal;font-variant:normal;font-weight:normal;font-stretch:normal;font-size:33.34180069px;line-height:1.25;font-family:Arial;-inkscape-font-specification:'Arial Normal';font-variant-ligatures:normal;font-variant-caps:normal;font-variant-numeric:normal;stroke-width:3.12579012;fill:#000000;fill-opacity:1"
                                                     id="path124898"
                                                     inkscape:connector-curvature="0" />
                                       <path
                                                     d="M 602.37748,29.307768 605.35676,29.047285 Q 605.5684,30.838104 606.33357,31.993997 607.11501,33.133609 608.74303,33.849937 610.37105,34.549985 612.40607,34.549985 614.21317,34.549985 615.59699,34.012739 616.9808,33.475493 617.64829,32.547523 618.33206,31.603273 618.33206,30.496221 618.33206,29.372889 617.68085,28.5426 617.02964,27.696031 615.53187,27.126224 614.57134,26.75178 611.28274,25.970332 607.99414,25.172603 606.67545,24.472556 604.96603,23.577146 604.11946,22.258452 603.28917,20.923477 603.28917,19.279179 603.28917,17.47208 604.31482,15.909183 605.34048,14.330006 607.31038,13.515997 609.28028,12.701988 611.68974,12.701988 614.34341,12.701988 616.36215,13.564838 618.39718,14.411407 619.48795,16.071985 620.57872,17.732563 620.66012,19.832705 L 617.63201,20.060628 Q 617.38781,17.797683 615.97143,16.641791 614.57134,15.485898 611.81999,15.485898 608.95467,15.485898 607.63598,16.54411 606.33357,17.586041 606.33357,19.067537 606.33357,20.353671 607.26154,21.18396 608.17323,22.014249 612.01535,22.893379 615.87375,23.756228 617.30641,24.407435 619.39027,25.367965 620.38336,26.849461 621.37645,28.314677 621.37645,30.235738 621.37645,32.140519 620.28568,33.833657 619.19491,35.510515 617.1436,36.454765 615.10858,37.382735 612.55259,37.382735 609.31284,37.382735 607.11501,36.438485 604.93347,35.494235 603.6799,33.605734 602.4426,31.700954 602.37748,29.307768 Z"
                                                     style="font-style:normal;font-variant:normal;font-weight:normal;font-stretch:normal;font-size:33.34180069px;line-height:1.25;font-family:Arial;-inkscape-font-specification:'Arial Normal';font-variant-ligatures:normal;font-variant-caps:normal;font-variant-numeric:normal;stroke-width:3.12579012;fill:#000000;fill-opacity:1"
                                                     id="path124900"
                                                     inkscape:connector-curvature="0" />
                                       <path
                                                     d="M 624.64876,29.307768 627.62803,29.047285 Q 627.83968,30.838104 628.60484,31.993997 629.38629,33.133609 631.01431,33.849937 632.64233,34.549985 634.67735,34.549985 636.48445,34.549985 637.86826,34.012739 639.25208,33.475493 639.91957,32.547523 640.60333,31.603273 640.60333,30.496221 640.60333,29.372889 639.95213,28.5426 639.30092,27.696031 637.80314,27.126224 636.84261,26.75178 633.55402,25.970332 630.26542,25.172603 628.94673,24.472556 627.23731,23.577146 626.39074,22.258452 625.56045,20.923477 625.56045,19.279179 625.56045,17.47208 626.5861,15.909183 627.61175,14.330006 629.58166,13.515997 631.55156,12.701988 633.96102,12.701988 636.61469,12.701988 638.63343,13.564838 640.66846,14.411407 641.75923,16.071985 642.85,17.732563 642.9314,19.832705 L 639.90329,20.060628 Q 639.65908,17.797683 638.24271,16.641791 636.84261,15.485898 634.09126,15.485898 631.22595,15.485898 629.90726,16.54411 628.60484,17.586041 628.60484,19.067537 628.60484,20.353671 629.53281,21.18396 630.4445,22.014249 634.28663,22.893379 638.14503,23.756228 639.57768,24.407435 641.66155,25.367965 642.65464,26.849461 643.64773,28.314677 643.64773,30.235738 643.64773,32.140519 642.55696,33.833657 641.46618,35.510515 639.41488,36.454765 637.37986,37.382735 634.82387,37.382735 631.58412,37.382735 629.38629,36.438485 627.20475,35.494235 625.95118,33.605734 624.71388,31.700954 624.64876,29.307768 Z"
                                                     style="font-style:normal;font-variant:normal;font-weight:normal;font-stretch:normal;font-size:33.34180069px;line-height:1.25;font-family:Arial;-inkscape-font-specification:'Arial Normal';font-variant-ligatures:normal;font-variant-caps:normal;font-variant-numeric:normal;stroke-width:3.12579012;fill:#000000;fill-opacity:1"
                                                     id="path124902"
                                                     inkscape:connector-curvature="0" />
                                       <path
                                                     d="M 657.84405,36.975731 H 654.91361 V 18.302369 Q 653.8554,19.31174 652.1297,20.321111 650.42029,21.330482 649.05275,21.835167 V 19.002416 Q 651.51106,17.846524 653.35072,16.202226 655.19038,14.557928 655.95555,13.011312 H 657.84405 Z"
                                                     style="font-style:normal;font-variant:normal;font-weight:normal;font-stretch:normal;font-size:33.34180069px;line-height:1.25;font-family:Arial;-inkscape-font-specification:'Arial Normal';font-variant-ligatures:normal;font-variant-caps:normal;font-variant-numeric:normal;stroke-width:3.12579012;fill:#000000;fill-opacity:1"
                                                     id="path124904"
                                                     inkscape:connector-curvature="0" />
                          </g>
                          <g
                                        id="textg99_LGD"
                                        style="fill:#000000;fill-opacity:1">
                                       <path
                                                     d="M 887.49696,43.601763 V 19.686184 H 890.16691 V 21.932848 Q 891.11116,20.614154 892.29961,19.962947 893.48806,19.29546 895.1812,19.29546 897.3953,19.29546 899.08844,20.435072 900.78158,21.574684 901.64443,23.658547 902.50728,25.726129 902.50728,28.200716 902.50728,30.854385 901.54675,32.987088 900.6025,35.103511 898.77912,36.243123 896.97202,37.366455 894.96956,37.366455 893.50434,37.366455 892.33217,36.747808 891.17628,36.129162 890.42739,35.184912 V 43.601763 Z M 890.15063,28.428638 Q 890.15063,31.766075 891.50188,33.361532 892.85314,34.956989 894.7742,34.956989 896.72782,34.956989 898.11163,33.312691 899.51173,31.652113 899.51173,28.184436 899.51173,24.87956 898.14419,23.235262 896.79294,21.590964 894.90444,21.590964 893.03222,21.590964 891.58328,23.349223 890.15063,25.091202 890.15063,28.428638 Z"
                                                     style="font-size:33.34180069px;line-height:1.25;font-family:Arial;-inkscape-font-specification:'Arial Normal';stroke-width:3.12579012;fill:#000000;fill-opacity:1"
                                                     id="path124907"
                                                     inkscape:connector-curvature="0" />
                                       <path
                                                     d="M 905.25863,30.675303 908.18906,30.284579 Q 908.69375,32.775445 909.89848,33.882497 911.11949,34.973269 912.86147,34.973269 914.92905,34.973269 916.34543,33.540614 917.77808,32.107958 917.77808,29.991535 917.77808,27.972794 916.45939,26.670379 915.1407,25.351685 913.10567,25.351685 912.27538,25.351685 911.03809,25.677289 L 911.3637,23.105021 Q 911.65674,23.137581 911.83582,23.137581 913.70804,23.137581 915.20582,22.160771 916.70359,21.18396 916.70359,19.148938 916.70359,17.537201 915.61282,16.478989 914.52205,15.420778 912.79635,15.420778 911.08693,15.420778 909.94732,16.495269 908.80771,17.569761 908.4821,19.718744 L 905.55167,19.197779 Q 906.08892,16.251067 907.9937,14.639329 909.89848,13.011312 912.73123,13.011312 914.68485,13.011312 916.32915,13.857881 917.97345,14.68817 918.8363,16.137105 919.71543,17.586041 919.71543,19.214059 919.71543,20.760675 918.88514,22.030529 918.05485,23.300383 916.42683,24.049271 918.54325,24.537676 919.71543,26.084293 920.8876,27.61463 920.8876,29.926415 920.8876,33.052208 918.60837,35.233752 916.32915,37.399015 912.84519,37.399015 909.70312,37.399015 907.61925,35.526795 905.55167,33.654575 905.25863,30.675303 Z"
                                                     style="font-size:33.34180069px;line-height:1.25;font-family:Arial;-inkscape-font-specification:'Arial Normal';stroke-width:3.12579012;fill:#000000;fill-opacity:1"
                                                     id="path124909"
                                                     inkscape:connector-curvature="0" />
                                       <path
                                                     d="M 923.80175,30.724143 926.8787,30.46366 Q 927.22059,32.710325 928.45788,33.849937 929.71145,34.973269 931.46971,34.973269 933.58614,34.973269 935.05135,33.377812 936.51657,31.782355 936.51657,29.144966 936.51657,26.637819 935.10019,25.188883 933.7001,23.739948 931.42087,23.739948 930.0045,23.739948 928.86488,24.391155 927.72527,25.026082 927.07406,26.051733 L 924.32272,25.693569 926.6345,13.434596 H 938.50275 V 16.234787 H 928.97885 L 927.69271,22.649176 Q 929.84169,21.1514 932.20232,21.1514 935.32811,21.1514 937.4771,23.316663 939.62608,25.481927 939.62608,28.884483 939.62608,32.124238 937.73758,34.484864 935.44208,37.382735 931.46971,37.382735 928.21368,37.382735 926.14609,35.559356 924.09479,33.735976 923.80175,30.724143 Z"
                                                     style="font-size:33.34180069px;line-height:1.25;font-family:Arial;-inkscape-font-specification:'Arial Normal';stroke-width:3.12579012;fill:#000000;fill-opacity:1"
                                                     id="path124911"
                                                     inkscape:connector-curvature="0" />
                                       <path
                                                     d="M 942.47511,29.307768 945.45438,29.047285 Q 945.66602,30.838104 946.43119,31.993997 947.21264,33.133609 948.84066,33.849937 950.46868,34.549985 952.5037,34.549985 954.3108,34.549985 955.69461,34.012739 957.07843,33.475493 957.74591,32.547523 958.42968,31.603273 958.42968,30.496221 958.42968,29.372889 957.77847,28.5426 957.12727,27.696031 955.62949,27.126224 954.66896,26.75178 951.38037,25.970332 948.09177,25.172603 946.77308,24.472556 945.06366,23.577146 944.21709,22.258452 943.3868,20.923477 943.3868,19.279179 943.3868,17.47208 944.41245,15.909183 945.4381,14.330006 947.408,13.515997 949.3779,12.701988 951.78737,12.701988 954.44104,12.701988 956.45978,13.564838 958.4948,14.411407 959.58557,16.071985 960.67635,17.732563 960.75775,19.832705 L 957.72963,20.060628 Q 957.48543,17.797683 956.06906,16.641791 954.66896,15.485898 951.91761,15.485898 949.0523,15.485898 947.73361,16.54411 946.43119,17.586041 946.43119,19.067537 946.43119,20.353671 947.35916,21.18396 948.27085,22.014249 952.11297,22.893379 955.97138,23.756228 957.40403,24.407435 959.48789,25.367965 960.48098,26.849461 961.47407,28.314677 961.47407,30.235738 961.47407,32.140519 960.3833,33.833657 959.29253,35.510515 957.24123,36.454765 955.20621,37.382735 952.65022,37.382735 949.41046,37.382735 947.21264,36.438485 945.0311,35.494235 943.77752,33.605734 942.54023,31.700954 942.47511,29.307768 Z"
                                                     style="font-size:33.34180069px;line-height:1.25;font-family:Arial;-inkscape-font-specification:'Arial Normal';stroke-width:3.12579012;fill:#000000;fill-opacity:1"
                                                     id="path124913"
                                                     inkscape:connector-curvature="0" />
                          </g>
                          <g
                                        id="textg106_LGD"
                                        style="fill:#000000;fill-opacity:1">
                                       <path
                                                     d="M 1054.4904,36.975731 V 15.925463 H 1046.627 V 13.108993 H 1065.5446 V 15.925463 H 1057.6487 V 36.975731 Z"
                                                     style="font-size:33.34180069px;line-height:1.25;font-family:Arial;-inkscape-font-specification:'Arial Normal';stroke-width:3.12579012;fill:#000000;fill-opacity:1"
                                                     id="path124916"
                                                     inkscape:connector-curvature="0" />
                                       <path
                                                     d="M 1063.6235,28.330957 Q 1063.6235,23.528305 1066.2935,21.21652 1068.5239,19.29546 1071.7311,19.29546 1075.2964,19.29546 1077.5594,21.639805 1079.8223,23.96787 1079.8223,28.086755 1079.8223,31.424191 1078.8129,33.345252 1077.8198,35.250032 1075.8988,36.308244 1073.994,37.366455 1071.7311,37.366455 1068.1006,37.366455 1065.8539,35.03839 1063.6235,32.710325 1063.6235,28.330957 Z M 1066.6354,28.330957 Q 1066.6354,31.652113 1068.0843,33.312691 1069.5332,34.956989 1071.7311,34.956989 1073.9126,34.956989 1075.3615,33.296411 1076.8105,31.635833 1076.8105,28.233276 1076.8105,25.026082 1075.3453,23.381784 1073.8963,21.721206 1071.7311,21.721206 1069.5332,21.721206 1068.0843,23.365504 1066.6354,25.009801 1066.6354,28.330957 Z"
                                                     style="font-size:33.34180069px;line-height:1.25;font-family:Arial;-inkscape-font-specification:'Arial Normal';stroke-width:3.12579012;fill:#000000;fill-opacity:1"
                                                     id="path124918"
                                                     inkscape:connector-curvature="0" />
                                       <path
                                                     d="M 1089.6718,34.354623 1090.0951,36.943171 Q 1088.8578,37.203653 1087.881,37.203653 1086.2855,37.203653 1085.4064,36.698968 1084.5273,36.194282 1084.1691,35.380274 1083.811,34.549985 1083.811,31.912596 V 21.965409 H 1081.662 V 19.686184 H 1083.811 V 15.404498 L 1086.7251,13.646239 V 19.686184 H 1089.6718 V 21.965409 H 1086.7251 V 32.075398 Q 1086.7251,33.328971 1086.8716,33.687135 1087.0344,34.045299 1087.3763,34.256941 1087.7345,34.468584 1088.3857,34.468584 1088.8741,34.468584 1089.6718,34.354623 Z"
                                                     style="font-size:33.34180069px;line-height:1.25;font-family:Arial;-inkscape-font-specification:'Arial Normal';stroke-width:3.12579012;fill:#000000;fill-opacity:1"
                                                     id="path124920"
                                                     inkscape:connector-curvature="0" />
                                       <path
                                                     d="M 1103.803,34.843028 Q 1102.175,36.226843 1100.6609,36.796649 1099.1632,37.366455 1097.4375,37.366455 1094.5884,37.366455 1093.0581,35.98264 1091.5278,34.582545 1091.5278,32.417282 1091.5278,31.147428 1092.0976,30.105497 1092.6836,29.047285 1093.6116,28.412358 1094.5559,27.777431 1095.728,27.451828 1096.5909,27.223905 1098.3329,27.012263 1101.8819,26.588979 1103.5588,26.002892 1103.5748,25.400526 1103.5748,25.237724 1103.5748,23.446905 1102.7445,22.714297 1101.6212,21.721206 1099.4071,21.721206 1097.3395,21.721206 1096.3464,22.453814 1095.3696,23.170142 1094.8975,25.009801 L 1092.0321,24.619077 Q 1092.4229,22.779417 1093.3183,21.656085 1094.2137,20.516473 1095.9068,19.914106 1097.6,19.29546 1099.8303,19.29546 1102.0444,19.29546 1103.4283,19.816425 1104.8121,20.337391 1105.4633,21.13512 1106.1145,21.916568 1106.375,23.121301 1106.5215,23.870189 1106.5215,25.82381 V 29.731053 Q 1106.5215,33.817377 1106.7006,34.908149 1106.8959,35.98264 1107.4495,36.975731 H 1104.3888 Q 1103.9329,36.064041 1103.8027,34.843028 Z M 1103.5588,28.298397 Q 1101.9633,28.949604 1098.7724,29.405449 1096.9653,29.665932 1096.2164,29.991535 1095.4676,30.317139 1095.0606,30.952066 1094.6535,31.570712 1094.6535,32.335881 1094.6535,33.508053 1095.5327,34.289502 1096.4281,35.07095 1098.1375,35.07095 1099.8306,35.07095 1101.1493,34.338342 1102.468,33.589454 1103.0867,32.30332 1103.5588,31.31023 1103.5588,29.372889 Z"
                                                     style="font-size:33.34180069px;line-height:1.25;font-family:Arial;-inkscape-font-specification:'Arial Normal';stroke-width:3.12579012;fill:#000000;fill-opacity:1"
                                                     id="path124922"
                                                     inkscape:connector-curvature="0" />
                                       <path
                                                     d="M 1111.0151,36.975731 V 13.108993 H 1113.9456 V 36.975731 Z"
                                                     style="font-size:33.34180069px;line-height:1.25;font-family:Arial;-inkscape-font-specification:'Arial Normal';stroke-width:3.12579012;fill:#000000;fill-opacity:1"
                                                     id="path124924"
                                                     inkscape:connector-curvature="0" />
                          </g>
             </g>
</svg>
